<svg width="1917" height="1062" viewBox="0 0 1917 1062" fill="none" xmlns="http://www.w3.org/2000/svg">
    <mask id="mask0_16_470" style="mask-type:alpha" maskUnits="userSpaceOnUse" x="0" y="-293" width="1917" height="1355">
        <path d="M643.324 884.189C624.891 884.189 591.439 881.913 544.106 877.362C436.923 867.349 397.554 835.945 362.737 808.41C346.125 795.211 330.423 782.695 308.804 773.593C284.228 763.125 272.167 754.705 273.532 748.788C273.987 746.513 276.49 743.782 285.365 743.782C294.923 743.782 312.673 747.195 331.561 756.981C337.022 759.711 341.574 762.215 345.897 764.49C368.881 776.551 378.212 781.33 436.24 804.541C454.901 812.051 471.285 819.106 485.849 825.477C525.445 842.772 556.849 856.426 605.32 864.846C661.529 874.631 661.301 878.955 661.074 880.775C660.391 882.824 657.433 884.189 643.324 884.189ZM285.138 746.968C279.676 746.968 276.945 748.106 276.718 749.243C276.718 749.471 275.808 755.843 309.942 770.407C332.016 779.737 347.945 792.253 364.785 805.679C399.147 832.987 438.288 863.936 544.333 873.949C591.667 878.5 624.891 880.548 643.324 880.548C650.833 880.548 654.474 880.093 656.067 879.865C651.971 877.817 637.862 873.721 604.183 867.804C555.256 859.384 523.853 845.503 484.029 828.208C468.782 821.609 453.08 814.782 434.42 807.272C376.163 784.061 366.833 779.054 343.622 766.993C339.526 764.718 334.747 762.442 329.285 759.484C311.308 750.381 294.24 746.968 285.138 746.968Z" fill="#FBE7B5"/>
        <path d="M1328.97 23.0865C1293.47 13.7564 1247.51 -9.91029 1194.03 -37.4455C1133.5 -68.6218 1058.17 -107.308 973.292 -137.801C916.401 -158.055 861.558 -162.378 796.929 -162.378C771.67 -162.378 743.679 -161.696 714.324 -161.013C677.686 -160.103 636.269 -159.192 589.391 -159.192C457.631 -159.192 328.375 -167.157 182.279 -184.452C175.907 -185.135 169.763 -185.59 164.074 -185.59C138.587 -185.59 121.064 -178.308 119.699 -167.385C118.788 -159.42 125.615 -138.484 210.497 -116.638C261.699 -103.439 301.067 -73.8558 342.712 -42.6795C401.196 1.24034 461.728 46.5256 558.67 46.5256C567.772 46.5256 577.33 46.0705 586.888 45.3878C658.343 39.2435 715.689 24.2243 766.208 10.798C820.596 -3.5385 872.026 -17.1924 930.965 -17.1924C962.596 -17.1924 994.683 -13.3237 1028.59 -5.58657C1194.94 32.6442 1293.25 52.2147 1347.41 57.9038C1353.78 58.5865 1359.47 58.8141 1364.47 58.8141C1374.49 58.8141 1386.55 57.4487 1387.46 51.3045C1388.82 40.6089 1351.28 29.0032 1328.97 23.0865ZM1384.04 51.3045C1383.82 52.8974 1379.49 55.8557 1364.47 55.8557C1359.47 55.8557 1353.78 55.6282 1347.63 54.9455C1293.7 49.2564 1195.39 29.6859 1029.27 -8.54491C994.91 -16.5097 962.824 -20.3782 930.737 -20.3782C871.115 -20.3782 819.686 -6.72438 765.07 7.61216C712.276 21.4936 657.433 36.0577 586.205 42.2019C576.875 43.1121 567.317 43.3397 558.215 43.3397C462.183 43.3397 402.333 -1.71799 344.305 -45.1827C302.66 -76.5866 262.837 -106.397 211.179 -119.824C144.048 -137.119 121.519 -155.551 122.885 -166.702C124.022 -175.805 140.635 -181.949 164.074 -181.949C169.763 -181.949 175.907 -181.494 182.051 -180.811C328.147 -163.516 457.631 -155.324 589.619 -155.324C636.497 -155.324 678.141 -156.234 714.551 -157.144C743.907 -157.827 771.897 -158.51 797.157 -158.51C861.558 -158.51 915.946 -154.413 972.381 -134.16C1056.81 -103.894 1132.13 -65.2084 1192.66 -34.0321C1246.14 -6.49682 1292.34 17.3974 1328.29 26.7275C1373.35 38.3333 1384.5 47.891 1384.04 51.3045Z" fill="#FBE7B5"/>
        <path d="M1165.36 -24.2469C1151.25 -31.5289 1131.68 -40.6315 1110.06 -49.9616C1097.31 -55.4231 1084.12 -62.0225 1070.01 -69.3045C1011.29 -98.8879 931.192 -139.622 784.641 -139.622C768.256 -139.622 750.961 -139.167 733.667 -138.029C680.872 -134.843 629.215 -133.478 580.516 -133.478C426 -133.25 305.391 -148.952 207.766 -164.199C195.25 -166.247 183.644 -167.157 174.314 -167.157C159.75 -167.157 152.24 -164.881 151.785 -160.33C150.647 -151 182.962 -140.987 210.497 -134.388C271.256 -119.596 306.984 -96.8398 352.269 -67.7116C371.612 -55.1956 391.865 -42.452 416.442 -28.5706C461.728 -3.0834 505.192 8.29479 557.532 8.29479C604.865 8.29479 661.301 -0.807758 740.494 -21.061C751.417 -23.7917 761.657 -26.5225 771.442 -29.0257C838.801 -46.5481 879.535 -57.0161 923.455 -57.0161C963.506 -57.0161 1006.29 -48.5962 1086.85 -25.1571C1139.41 -9.91032 1172.18 -2.17313 1184.24 -2.17313C1185.84 -2.17313 1190.39 -2.17314 1190.84 -5.13147C1191.07 -7.17955 1191.75 -10.593 1165.36 -24.2469ZM1184.02 -5.81417C1172.41 -5.81417 1139.87 -13.5513 1087.76 -28.7981C1006.74 -52.4648 963.734 -60.6571 923.227 -60.6571C879.08 -60.6571 838.119 -49.9616 770.532 -32.4392C760.747 -29.936 750.506 -27.2052 739.583 -24.4744C660.619 -4.22121 604.41 4.88133 557.532 4.88133C505.875 4.88133 462.865 -6.26928 418.035 -31.7565C393.458 -45.6379 373.433 -58.3815 354.09 -70.6699C308.577 -99.7981 272.394 -122.782 211.179 -137.801C166.122 -148.724 154.744 -157.144 155.199 -160.103C155.426 -161.24 159.067 -163.971 174.542 -163.971C183.644 -163.971 195.25 -162.833 207.538 -161.013C305.163 -145.539 426 -129.837 580.516 -129.837C629.215 -129.837 680.872 -131.43 733.894 -134.388C751.189 -135.298 768.256 -135.981 784.641 -135.981C930.282 -135.981 1010.16 -95.702 1068.41 -66.1187C1082.52 -59.0642 1095.95 -52.2372 1108.69 -46.7757C1158.07 -25.6122 1185.38 -10.593 1187.2 -6.2693C1186.75 -6.04173 1185.84 -5.81417 1184.02 -5.81417Z" fill="#FBE7B5"/>
        <path d="M1797.53 -183.314C1649.38 -197.196 1593.4 -158.282 1548.57 -127.106C1542.2 -122.555 1536.06 -118.458 1529.91 -114.362C1511.25 -102.301 1493.73 -89.7853 1476.66 -77.4968C1447.31 -56.5609 1422.05 -38.3558 1402.25 -31.0738C1392.69 -27.6603 1388.6 -24.4744 1388.6 -21.0609C1388.37 -16.2821 1395.42 -13.3238 1405.21 -9.2276C1411.58 -6.49684 1418.63 -3.53851 1424.1 0.330081C1426.37 1.92303 1428.65 3.74357 1430.92 5.33652C1445.71 16.7147 1459.82 27.6378 1494.87 7.8397C1498.05 6.01919 1501.47 3.97113 1505.11 1.92306C1545.84 -21.7436 1614.11 -61.5673 1743.82 -70.2148C1822.79 -75.4487 1880.82 -62.9327 1916.54 -50.8718V-54.0577C1880.36 -66.1186 1822.11 -78.6346 1743.6 -73.4007C1612.97 -64.5257 1544.25 -24.702 1503.29 -0.80774C1499.65 1.24034 1496.23 3.28843 1493.05 5.10894C1460.05 23.7692 1447.54 14.2115 1432.97 3.06088C1430.7 1.24036 1428.42 -0.352591 1426.14 -2.1731C1420.46 -6.26926 1413.17 -9.22759 1406.57 -12.1859C1399.97 -14.9167 1391.78 -18.5577 1392.01 -20.8334C1392.01 -21.5161 1392.92 -23.7917 1403.62 -27.6603C1424.1 -35.1699 1449.36 -53.375 1478.94 -74.5385C1496.01 -86.827 1513.53 -99.343 1531.96 -111.404C1538.33 -115.5 1544.25 -119.824 1550.85 -124.147C1595.22 -155.096 1650.52 -193.782 1797.53 -179.901C1848.96 -175.122 1887.64 -174.212 1916.54 -175.577V-179.218C1888.1 -177.853 1849.64 -178.308 1797.53 -183.314Z" fill="#FBE7B5"/>
        <path d="M1787.97 -200.154C1722.89 -209.029 1668.27 -205.16 1615.71 -187.41C1567.46 -171.253 1520.81 -144.173 1465.06 -99.1154C1367.21 -20.6058 1316.69 -30.6186 1283.23 -37.2179C1281.87 -37.4455 1280.5 -37.6731 1279.14 -38.1282C1270.95 -39.7211 1265.26 -39.0385 1262.75 -35.8526C1261.16 -34.032 1260.93 -31.7564 1261.84 -29.0256C1265.26 -19.2404 1288.47 -1.71795 1337.62 6.70192C1411.12 19.2179 1421.59 24.4519 1433.88 41.0641C1438.43 46.9808 1444.58 49.9391 1453.22 49.9391C1472.34 49.9391 1502.83 35.6026 1550.39 9.88784C1573.61 -2.62819 1636.41 -32.6667 1721.07 -40.859C1790.02 -47.4583 1855.56 -38.1282 1916.09 -12.8686V-16.5096C1855.33 -41.5417 1789.79 -50.8718 1720.61 -44.2724C1635.28 -36.0801 1572.01 -5.81409 1548.57 6.9295C1474.39 47.2083 1448.22 54.718 1436.38 39.2436C1423.41 21.9487 1412.72 16.4872 1337.85 3.74358C1290.29 -4.44873 1267.76 -21.0609 1264.57 -29.7083C1264.12 -31.0737 1264.12 -32.2115 1264.8 -33.1218C1265.48 -33.8045 1268.21 -36.0801 1278 -34.2596C1279.37 -34.0321 1280.73 -33.8045 1282.1 -33.3494C1316.23 -26.5224 1367.66 -16.2821 1466.65 -95.9295C1522.18 -140.532 1568.37 -167.612 1616.39 -183.542C1668.5 -200.837 1722.66 -204.933 1787.29 -196.058C1845.32 -188.093 1887.19 -188.321 1915.86 -191.051V-194.465C1889.46 -192.872 1847.37 -192.189 1787.97 -200.154Z" fill="#FBE7B5"/>
        <path d="M1838.04 299.122C1792.29 299.122 1730.85 304.811 1619.12 319.603C1588.4 323.699 1559.95 325.747 1532.42 325.747C1443.67 325.747 1361.97 305.038 1250.69 254.292C1156.48 211.282 1108.24 190.574 1045.88 190.574C1024.27 190.574 999.917 192.849 967.147 198.083C869.067 213.785 857.689 213.785 841.987 213.785C839.484 213.785 836.981 213.785 834.022 213.785C775.994 215.151 767.801 222.888 766.891 228.349C765.981 233.583 770.305 242.686 817.638 260.436C833.34 266.353 851.09 273.179 870.205 280.462C952.583 311.638 1054.99 350.551 1131.9 376.949C1187.43 396.064 1241.82 404.939 1303.26 404.939C1344.45 404.939 1390.19 401.07 1447.08 392.878C1505.11 384.458 1567.92 369.212 1628.9 354.42C1705.14 335.987 1777.05 318.465 1826.88 317.782C1906.08 316.872 1906.3 310.955 1906.3 308.679C1906.3 306.859 1906.53 303.218 1873.54 300.487C1862.61 299.577 1851.01 299.122 1838.04 299.122ZM1826.88 314.141C1776.82 314.824 1704.68 332.346 1628.22 350.779C1567.46 365.57 1504.43 380.817 1446.62 389.237C1389.73 397.429 1344.22 401.298 1303.26 401.298C1241.59 401.298 1189.02 392.651 1133.04 373.308C1056.13 346.91 953.721 307.997 871.343 276.82C852.228 269.538 834.478 262.712 818.776 256.795C775.311 240.41 769.622 231.99 770.304 228.577C770.987 224.708 780.09 218.109 834.022 216.744C836.981 216.744 839.484 216.744 841.76 216.744C857.689 216.744 869.067 216.516 967.603 201.042C1000.14 195.808 1024.27 193.532 1045.88 193.532C1089.35 193.532 1116.2 196.263 1249.33 257.022C1361.06 307.997 1442.98 328.933 1532.42 328.933C1560.18 328.933 1588.62 326.885 1619.57 322.788C1731.08 307.997 1792.29 302.308 1838.04 302.308C1850.78 302.308 1862.16 302.763 1873.31 303.673C1894.24 305.494 1900.62 307.542 1902.44 308.452C1898.34 310.5 1879 313.458 1826.88 314.141Z" fill="#FBE7B5"/>
        <path d="M1384.96 342.814C1341.72 334.622 1261.39 319.603 1179.92 290.929C1160.8 284.33 1145.1 276.365 1130.08 268.856C1090.49 249.058 1053.17 230.397 962.596 230.397C940.978 230.397 916.628 231.535 890.458 233.583C854.503 236.542 849.952 241.776 849.724 245.417C849.497 247.92 849.042 254.747 895.465 264.532C930.054 271.814 983.077 290.929 1044.52 313.003C1080.7 325.974 1118.25 339.401 1156.71 352.372C1207 369.211 1260.48 377.631 1315.09 377.631C1350.37 377.631 1379.27 373.99 1397.7 371.487C1425.23 367.619 1428.88 363.067 1428.88 359.654C1428.88 355.558 1423.87 350.096 1384.96 342.814ZM1397.02 368.074C1378.58 370.804 1349.91 374.218 1314.87 374.218C1260.48 374.218 1207.68 365.798 1157.62 349.186C1119.16 336.442 1081.61 322.788 1045.43 309.817C983.987 287.744 930.737 268.628 895.92 261.119C853.821 252.244 852.91 246.327 852.91 245.644C852.91 244.961 854.276 239.955 890.458 236.997C916.628 234.721 940.75 233.811 962.369 233.811C1052.26 233.811 1089.35 252.244 1128.49 271.814C1143.74 279.551 1159.67 287.288 1178.78 294.115C1260.48 322.788 1341.04 338.035 1384.27 346C1424.32 353.51 1425.23 358.971 1425.23 359.426C1425.23 360.109 1424.32 364.205 1397.02 368.074Z" fill="#FBE7B5"/>
        <path d="M1782.05 265.215C1743.82 265.215 1704.23 267.718 1664.86 272.724C1646.88 275 1629.59 276.138 1613.43 276.138C1528.09 276.138 1474.16 244.734 1411.81 208.551C1350.59 172.824 1280.96 132.545 1165.81 112.747C1123.71 105.465 1087.07 102.051 1053.85 102.051C980.801 102.051 935.971 119.119 888.41 137.324C838.346 156.439 786.461 176.237 695.436 179.423C616.471 182.154 576.875 189.891 574.599 203.545C573.234 211.51 584.385 220.385 609.189 230.397C625.801 237.224 650.378 246.099 681.327 257.705C766.891 289.109 896.147 336.897 1021.99 396.747C1114.38 440.667 1196.99 460.237 1290.06 460.237C1374.26 460.237 1470.52 443.397 1592.72 407.442C1728.58 367.391 1839.63 356.468 1916.54 350.096V346.683C1839.63 353.054 1728.12 363.978 1591.81 404.256C1469.84 440.211 1374.03 457.051 1290.06 457.051C1197.67 457.051 1115.52 437.481 1023.58 393.788C897.513 333.939 768.256 286.151 682.692 254.747C651.744 243.369 627.167 234.266 610.782 227.667C580.971 215.606 577.558 208.096 578.24 204.455C579.378 198.083 596.218 186.705 695.891 183.292C787.372 180.106 839.484 160.308 889.776 140.965C936.881 122.987 981.484 105.92 1054.08 105.92C1087.07 105.92 1123.48 109.333 1165.36 116.615C1280.05 136.186 1349.23 176.465 1410.21 211.965C1473.02 248.375 1527.18 280.006 1613.43 280.006C1629.81 280.006 1647.34 278.869 1665.31 276.593C1704.68 271.587 1743.82 269.083 1782.05 269.083C1833.94 269.083 1879.45 273.862 1916.32 280.917V277.276C1879.91 269.994 1834.85 265.215 1782.05 265.215Z" fill="#FBE7B5"/>
        <path d="M1823.24 281.144C1780.69 281.144 1741.32 285.013 1703.32 288.881C1667.36 292.522 1633.46 295.936 1598.64 295.936C1563.37 295.936 1531.28 292.295 1500.56 284.785C1449.13 272.042 1402.93 248.83 1353.78 224.026C1276.86 185.112 1197.21 145.061 1091.62 145.061C1013.34 145.061 957.135 159.625 902.747 173.506C848.814 187.388 798.067 200.359 727.75 200.359C710.455 200.359 692.25 199.449 673.817 197.856C669.494 197.401 665.397 197.173 661.529 197.173C644.689 197.173 633.994 200.814 633.311 206.731C631.946 216.288 655.385 225.163 675.41 230.853C737.99 248.603 900.926 309.362 1046.79 369.439C1141.92 408.58 1209.96 429.971 1296.89 429.971C1346.5 429.971 1400.88 422.917 1468.02 407.67C1648.93 366.708 1828.02 328.933 1912.22 328.933C1913.81 328.933 1915.18 328.933 1916.77 328.933V325.519C1915.18 325.519 1913.81 325.519 1912.22 325.519C1827.57 325.519 1648.47 363.295 1467.33 404.256C1400.43 419.276 1346.27 426.33 1296.89 426.33C1210.64 426.33 1143.05 405.167 1048.16 366.026C902.292 305.949 739.128 244.962 676.548 227.212C646.282 218.564 636.269 211.054 636.952 206.958C637.407 203.772 645.372 200.359 661.756 200.359C665.625 200.359 669.721 200.586 673.817 200.814C692.478 202.407 710.683 203.317 728.205 203.317C798.75 203.317 849.952 190.119 904.112 176.237C958.272 162.356 1014.48 147.792 1092.08 147.792C1196.76 147.792 1275.95 187.843 1352.64 226.529C1401.79 251.333 1448.45 274.772 1500.1 287.516C1531.05 295.253 1563.59 298.894 1599.09 298.894C1634.14 298.894 1668.04 295.481 1704.23 291.84C1742.23 287.971 1781.37 284.103 1823.93 284.103C1850.1 284.103 1874.9 285.468 1899.48 288.654C1905.85 289.337 1911.54 290.247 1917 291.157V287.744C1911.54 286.833 1905.85 286.151 1899.93 285.24C1874.45 282.51 1849.41 281.144 1823.24 281.144Z" fill="#FBE7B5"/>
        <path d="M1794.34 135.048L1793.66 135.276C1777.05 140.737 1762.26 145.971 1749.51 150.75C1724.94 159.625 1705.37 166.452 1684.88 171.231C1671 174.417 1661.67 179.195 1660.31 183.747C1659.85 185.112 1660.31 186.478 1661.22 187.615C1663.95 190.574 1671.69 190.801 1682.38 188.298L1685.34 187.615C1713.33 180.788 1778.87 165.086 1845.09 166.224C1874.67 166.679 1898.79 168.045 1916.32 169.638V166.224C1898.57 164.631 1874.67 163.266 1845.09 162.811C1778.41 161.901 1712.65 177.603 1684.43 184.429L1681.47 185.112C1669.64 187.843 1664.63 186.478 1663.49 185.567C1663.27 185.34 1663.27 185.34 1663.27 184.885C1663.95 182.609 1670.32 178.058 1685.34 174.644C1706.05 169.865 1725.62 162.811 1750.42 153.936C1763.39 149.385 1777.96 144.151 1794.57 138.462L1795.25 138.234C1830.98 126.401 1870.35 113.202 1916.09 126.628V122.987C1870.12 109.788 1830.53 122.987 1794.34 135.048Z" fill="#FBE7B5"/>
        <path d="M1762.94 120.484C1654.62 165.997 1581.8 186.933 1534.01 186.933C1517.85 186.933 1508.52 190.119 1508.29 196.035C1507.84 205.82 1534.92 214.923 1577.25 219.019C1604.1 221.522 1638.23 215.378 1677.6 207.869C1744.28 195.58 1825.29 180.561 1916.32 197.628V194.215C1824.84 177.147 1743.6 192.167 1676.92 204.455C1637.55 211.737 1603.64 218.109 1577.47 215.378C1527.18 210.599 1511.25 200.131 1511.48 196.035C1511.48 193.76 1517.62 190.346 1533.78 190.346C1582.03 190.346 1655.3 169.183 1764.08 123.442C1827.57 96.8173 1876.04 97.2724 1905.62 102.506C1909.26 103.189 1912.9 103.872 1916.09 104.782V101.369C1912.9 100.686 1909.72 100.003 1906.3 99.3205C1876.49 94.314 1827.11 93.6314 1762.94 120.484Z" fill="#FBE7B5"/>
        <path d="M1736.54 113.202C1636.41 148.474 1560.63 172.824 1497.14 161.901C1459.37 155.301 1433.2 158.26 1428.87 169.638C1425.46 178.74 1435.93 190.574 1460.05 205.138C1514.21 238.135 1578.16 254.974 1728.8 238.135C1814.37 228.577 1878.77 239.272 1916.32 249.058V245.417C1909.95 243.824 1902.66 242.003 1894.93 240.41C1859.65 233.356 1802.08 226.529 1728.58 234.721C1578.84 251.561 1515.58 234.721 1461.87 202.179C1440.48 189.208 1429.56 177.603 1432.29 170.776C1435.7 161.445 1462.33 159.17 1496.69 165.086C1507.38 166.907 1518.31 167.817 1529.69 167.817C1586.8 167.817 1653.94 145.971 1737.91 116.388C1818.24 87.9422 1871.03 86.1217 1916.54 97.0448V93.6313C1870.35 82.7083 1817.1 84.7564 1736.54 113.202Z" fill="#FBE7B5"/>
        <path d="M1830.75 454.32C1800.71 454.32 1775 463.651 1753.84 481.856C1749.29 485.724 1747.69 488.91 1748.83 491.869C1750.42 496.42 1758.84 498.24 1776.82 498.24C1792.75 498.24 1814.37 496.647 1837.12 495.054C1844.63 494.599 1852.37 493.917 1860.11 493.461C1871.94 492.551 1907.9 490.276 1909.04 479.125C1909.72 471.388 1893.33 465.244 1879.45 461.603C1862.16 456.596 1845.77 454.32 1830.75 454.32ZM1905.62 478.67C1905.39 480.035 1902.66 487.09 1859.88 489.82C1852.14 490.276 1844.41 490.958 1836.9 491.413C1814.14 493.006 1792.75 494.599 1776.82 494.599C1756.79 494.599 1752.7 491.869 1752.24 490.276C1752.02 489.593 1752.02 488 1756.34 484.131C1776.82 466.381 1801.85 457.506 1830.98 457.506C1845.77 457.506 1861.7 459.782 1878.54 464.333C1898.79 470.25 1905.85 475.711 1905.62 478.67Z" fill="#FBE7B5"/>
        <path d="M1826.43 443.397C1777.28 443.397 1744.05 465.016 1717.2 482.311C1711.51 485.952 1706.28 489.365 1701.27 492.324C1698.99 493.689 1692.17 497.558 1693.53 503.019C1698.54 521.452 1804.81 521.907 1817.1 521.907C1837.81 521.907 1858.52 521.224 1876.95 519.859C1893.11 518.721 1906.3 516.445 1916.32 513.487V509.846C1906.3 513.032 1892.88 515.308 1876.72 516.445C1858.52 517.811 1837.81 518.494 1817.1 518.494C1751.11 518.494 1699.45 511.439 1696.95 502.109C1696.49 500.288 1698.54 497.785 1703.09 495.282C1708.1 492.324 1713.56 488.91 1719.25 485.269C1745.64 468.202 1778.64 446.811 1826.66 446.811C1848.5 446.811 1872.17 451.362 1896.52 460.465C1904.03 463.195 1910.86 466.381 1916.54 469.567V465.699C1911.08 462.74 1904.71 460.01 1897.66 457.279C1872.62 447.949 1848.73 443.397 1826.43 443.397Z" fill="#FBE7B5"/>
        <path d="M1896.29 443.397C1868.07 434.067 1841.9 429.744 1816.87 429.744C1769.31 429.744 1734.72 446.128 1704 460.692C1699.45 462.74 1695.12 464.788 1690.8 466.836C1659.62 480.945 1644.38 494.599 1644.83 507.343C1645.29 518.494 1657.58 528.051 1682.38 536.699C1731.99 553.766 1779.1 562.186 1826.43 562.186C1856.24 562.186 1886.28 558.772 1916.32 552.173V548.76C1886.28 555.359 1856.24 559 1826.43 559C1779.55 559 1732.9 550.808 1683.52 533.74C1660.54 525.776 1648.7 516.901 1648.25 507.57C1647.79 496.647 1662.81 483.676 1692.17 470.25C1696.49 468.202 1700.81 466.154 1705.37 464.106C1735.63 449.769 1770.22 433.612 1816.87 433.612C1841.68 433.612 1867.16 437.936 1895.15 447.266C1902.44 449.769 1909.49 452.272 1916.09 454.776V451.135C1909.72 447.949 1902.89 445.445 1896.29 443.397Z" fill="#FBE7B5"/>
        <path d="M1600.69 630.683C1536.51 625.449 1510.34 636.144 1507.38 647.75C1505.56 654.804 1511.48 661.859 1523.77 667.776C1541.06 675.74 1563.37 687.801 1597.04 706.006C1628.68 722.846 1671.69 746.058 1729.03 775.869C1800.71 812.962 1872.4 826.615 1916.54 831.394V827.981C1872.63 822.974 1801.85 809.548 1730.62 772.683C1673.51 743.099 1630.27 719.888 1598.64 703.048C1564.73 684.843 1542.43 672.782 1525.13 664.817C1514.67 660.038 1509.21 653.894 1510.57 648.888C1513.3 638.192 1542.2 629.545 1600.46 634.324C1631.18 636.827 1659.4 646.385 1691.94 657.308C1745.42 675.285 1810.04 696.904 1916.32 698.269V694.628C1810.5 693.263 1746.33 671.644 1693.08 653.894C1660.31 642.744 1631.86 633.186 1600.69 630.683Z" fill="#FBE7B5"/>
        <path d="M1592.49 665.045C1591.36 665.955 1590.9 667.093 1591.13 668.458C1591.36 669.824 1592.04 673.92 1611.61 681.657C1623.21 686.208 1638.46 694.628 1657.8 705.551C1714.7 737.41 1805.04 787.929 1916.54 795.667V792.253C1805.95 784.516 1716.06 734.224 1659.62 702.593C1640.28 691.67 1624.81 683.022 1612.97 678.471C1595 671.417 1594.54 668.003 1594.54 668.003C1596.59 663.907 1642.33 666.183 1728.12 701.683C1793.43 728.763 1866.71 736.5 1916.54 738.32V734.907C1867.16 733.086 1794.34 725.349 1729.49 698.497C1652.8 666.638 1600.69 658.673 1592.49 665.045Z" fill="#FBE7B5"/>
        <path d="M1765.9 638.192C1628.9 605.651 1604.1 603.83 1524.91 620.215L1521.49 620.897C1468.7 631.82 1445.49 636.827 1444.8 646.385C1444.35 653.211 1456.18 660.038 1485.54 670.051C1504.88 676.651 1531.73 693.035 1565.64 713.516C1648.02 763.808 1768.63 837.311 1916.32 850.965V847.551C1769.54 833.897 1649.38 760.849 1567.46 710.785C1533.33 690.077 1506.47 673.692 1486.68 666.865C1460.96 658.218 1447.99 651.391 1448.22 646.84C1448.67 639.558 1480.99 632.731 1522.18 624.311L1525.59 623.628C1604.1 607.471 1628.68 609.292 1765.21 641.606C1829.16 656.625 1879.91 658.218 1916.32 655.715V652.301C1880.36 654.804 1829.62 653.212 1765.9 638.192Z" fill="#FBE7B5"/>
        <path d="M1713.1 592.679C1614.34 560.82 1552.9 583.122 1503.52 600.872C1487.59 606.561 1472.34 612.25 1458.23 614.753C1421.59 621.58 1399.97 632.276 1399.06 644.109C1398.61 652.301 1407.71 659.583 1426.14 665.727C1454.13 675.058 1475.53 687.119 1522.4 713.744C1555.63 732.631 1601.37 758.346 1671.46 795.894C1780.46 854.151 1867.62 868.942 1916.09 872.356V868.942C1868.07 865.756 1781.37 850.737 1673.05 792.936C1602.96 755.615 1557.45 729.673 1524.22 710.785C1477.12 684.16 1455.5 671.872 1427.28 662.542C1410.9 657.08 1402.02 650.708 1402.48 644.336C1403.16 634.551 1425.23 624.311 1458.69 618.167C1473.25 615.436 1488.5 609.974 1504.65 604.058C1553.58 586.308 1614.34 564.234 1711.96 595.865C1799.8 624.311 1869.21 622.035 1916.09 613.843V610.429C1869.67 618.622 1800.94 620.897 1713.1 592.679Z" fill="#FBE7B5"/>
        <path d="M1042.93 1020.73C1032.46 1009.8 1022.45 1000.93 1014.48 993.647C1004.47 984.545 994.91 975.897 995.82 973.166C996.048 972.711 996.958 972.029 998.779 971.801C1009.7 969.525 1079.56 1003.89 1142.83 1061.69H1147.83C1084.57 1002.98 1011.98 965.429 998.096 968.388C996.958 968.615 993.545 969.298 992.635 972.256C991.269 977.035 998.779 983.862 1012.43 996.15C1020.4 1003.43 1030.18 1012.31 1040.65 1023C1052.94 1035.75 1064.54 1049.4 1074.1 1061.69H1078.43C1068.19 1048.95 1055.9 1034.15 1042.93 1020.73Z" fill="#FBE7B5"/>
        <path d="M1816.87 986.365C1677.37 944.949 1579.98 898.981 1430.92 804.542C1338.53 746.058 1258.43 706.917 1166.49 706.917C1136.91 706.917 1108.24 710.33 1075.24 714.199C1034.73 718.977 988.994 724.439 930.51 724.667C880.446 724.894 873.163 728.763 872.708 732.859C872.481 735.817 871.798 741.279 936.426 755.615C1005.83 770.862 1070.01 803.176 1151.47 844.138C1187.88 862.343 1228.85 883.051 1275.95 904.897C1402.71 963.836 1512.39 984.772 1651.21 1011.17C1678.97 1016.4 1707.64 1021.87 1737.91 1028.01C1802.99 1040.98 1842.13 1043.71 1863.52 1043.71C1889.92 1043.71 1903.8 1039.84 1904.94 1032.11C1907.21 1015.72 1850.78 996.378 1816.87 986.365ZM1901.53 1031.2C1901.3 1033.24 1897.66 1040.07 1863.52 1040.07C1842.13 1040.07 1803.22 1037.34 1738.59 1024.37C1708.55 1018.45 1679.65 1012.99 1651.89 1007.53C1513.3 981.131 1403.84 960.423 1277.54 901.711C1230.67 879.865 1189.48 859.157 1153.29 840.952C1071.83 799.99 1007.2 767.676 937.564 752.202C881.811 739.913 876.577 734.452 876.349 733.314C876.804 732.176 882.266 728.308 930.737 728.08C989.449 727.853 1035.42 722.391 1075.92 717.612C1108.92 713.744 1137.59 710.33 1166.95 710.33C1232.71 710.33 1302.58 726.715 1429.56 807.272C1578.84 901.939 1676.46 947.907 1816.42 989.551C1880.82 1008.89 1902.66 1024.14 1901.53 1031.2Z" fill="#FBE7B5"/>
        <path d="M1747.01 984.09C1733.13 980.449 1717.88 977.263 1701.72 973.622C1622.76 956.099 1514.89 932.205 1427.05 853.24C1342.86 777.462 1291.88 731.494 1151.93 731.494C1120.07 731.494 1083.89 733.769 1041.56 738.321C1027.68 739.913 1016.53 740.824 1007.43 741.734C985.353 743.782 982.622 744.01 982.394 746.74C982.167 749.699 985.125 750.381 1012.66 757.208L1022.22 759.712C1050.21 766.766 1102.32 792.253 1162.85 821.609C1232.49 855.744 1311.45 894.202 1386.32 921.51C1491.23 959.968 1590.9 977.49 1671 991.599C1698.99 996.606 1725.39 1001.16 1748.6 1006.16C1774.09 1011.63 1793.21 1014.58 1803.9 1014.58C1808.45 1014.58 1813.46 1014.13 1813.91 1010.94C1814.82 1002.29 1762.94 988.186 1747.01 984.09ZM1803.67 1011.4C1793.21 1011.4 1773.86 1008.44 1749.06 1003.21C1725.85 998.199 1699.45 993.647 1671.46 988.641C1591.58 974.532 1492.14 957.01 1387.46 918.551C1313.04 891.244 1234.08 852.785 1164.45 818.878C1103.91 789.295 1051.57 763.808 1023.13 756.753L1013.57 754.25C1001.51 751.292 992.179 749.016 987.856 747.423C991.497 746.74 999.006 746.058 1007.65 745.375C1016.76 744.465 1028.13 743.554 1041.79 741.961C1084.12 737.41 1120.3 735.135 1151.93 735.135C1290.52 735.135 1338.3 778.144 1424.78 855.971C1513.3 935.619 1621.85 959.513 1701.04 977.035C1717.2 980.676 1732.45 984.09 1746.33 987.503C1791.61 999.109 1808.68 1007.98 1810.27 1010.71C1809.59 1010.94 1808 1011.4 1803.67 1011.4Z" fill="#FBE7B5"/>
        <path d="M1387.69 853.24C1378.81 847.324 1369.25 840.042 1359.24 832.304C1317.82 800.445 1260.93 756.526 1167.18 756.526C1166.27 756.526 1165.36 756.526 1164.45 756.526C1125.99 756.981 1105.96 760.849 1105.28 768.131C1104.6 774.731 1119.84 781.558 1150.34 788.612C1185.84 796.577 1220.43 814.782 1260.25 835.718C1288.24 850.282 1319.87 867.122 1355.37 881.686C1380.63 892.154 1399.75 897.615 1410.9 897.615C1417.5 897.615 1421.37 895.795 1422.5 892.154C1424.78 883.961 1411.12 868.715 1387.69 853.24ZM1419.09 891.016C1418.41 893.519 1414.08 894.202 1410.9 894.202C1403.39 894.202 1388.14 891.471 1356.74 878.5C1321.46 863.936 1289.83 847.324 1261.84 832.76C1221.56 811.596 1186.97 793.391 1151.02 785.426C1116.88 777.689 1108.24 771.317 1108.69 768.814C1108.92 765.856 1121.21 760.622 1164.45 760.394C1165.36 760.394 1166.27 760.394 1167.18 760.394C1259.79 760.394 1316 803.631 1357.19 835.49C1367.21 843.228 1376.76 850.51 1385.87 856.426C1409.76 871.901 1420.68 885.554 1419.09 891.016Z" fill="#FBE7B5"/>
        <path d="M1787.29 942.901C1680.79 907.401 1587.26 846.641 1488.27 782.24C1458.46 762.897 1427.74 742.872 1397.02 723.984C1323.29 678.471 1255.24 657.308 1182.2 657.308C1142.83 657.308 1100.73 662.997 1045.43 676.195C1019.26 682.34 997.869 687.574 980.801 691.67C917.311 706.917 904.112 710.103 870.205 711.24C801.026 713.288 765.753 718.522 765.298 726.942C765.071 729.673 764.615 735.817 817.183 744.237C912.987 759.711 1002.65 786.792 1129.86 869.853C1267.99 960.195 1421.59 1013.67 1613.2 1038.48C1652.34 1043.48 1689.66 1048.72 1722.43 1053.5C1743.37 1056.46 1763.17 1059.19 1781.6 1061.69H1807.77C1782.28 1058.5 1754.06 1054.41 1722.89 1050.08C1689.89 1045.3 1652.57 1040.07 1613.43 1035.06C1422.28 1010.49 1269.13 957.01 1131.45 867.122C1003.79 783.606 913.67 756.298 817.41 740.824C768.712 733.086 768.484 727.397 768.484 727.17C768.484 726.715 770.305 717.612 870.205 714.654C904.567 713.516 917.766 710.33 981.484 695.083C998.551 690.987 1019.94 685.753 1046.11 679.609C1101.18 666.638 1143.28 660.949 1182.2 660.949C1254.33 660.949 1322.15 681.885 1395.2 727.17C1425.92 746.285 1456.64 766.083 1486.45 785.426C1585.67 849.827 1679.2 910.814 1786.15 946.314C1848.73 967.25 1890.38 983.179 1916.32 997.971V994.102C1889.92 979.311 1848.28 963.381 1787.29 942.901Z" fill="#FBE7B5"/>
        <path d="M525.218 1034.38C498.365 1030.06 462.638 1029.15 413.029 1031.88C361.827 1034.61 290.372 1050.77 246.679 1061.69H260.788C304.708 1050.99 367.061 1037.79 413.029 1035.29C479.478 1031.65 555.484 1032.11 577.33 1061.69H581.426C573.006 1048.04 554.574 1039.16 525.218 1034.38Z" fill="#FBE7B5"/>
        <path d="M551.16 1018.45C498.593 1005.25 460.362 995.923 348.173 1021.18C237.577 1045.99 208.676 1053.72 202.077 1061.69H207.538C219.372 1054.41 262.381 1044.17 348.856 1024.6C460.362 999.336 498.138 1008.89 550.25 1021.87C567.772 1026.19 587.798 1031.2 612.603 1035.29C654.247 1042.12 680.644 1050.99 699.077 1061.69H705.676C686.788 1049.4 659.026 1039.39 613.058 1031.88C588.481 1027.78 568.683 1022.78 551.16 1018.45Z" fill="#FBE7B5"/>
        <path d="M735.942 1024.6C697.939 1017.77 650.833 1009.35 592.349 991.599C481.981 957.92 363.647 991.827 268.526 1019.13C225.288 1031.42 188.196 1042.12 158.84 1044.39C134.035 1046.44 104.679 1050.99 101.266 1061.46H105.135C108.548 1056.46 123.795 1050.54 159.067 1047.81C188.651 1045.53 226.199 1034.84 269.436 1022.32C364.103 995.24 481.981 961.561 591.212 994.785C649.923 1012.76 697.256 1021.18 735.26 1027.78C783.958 1036.43 816.272 1042.35 835.388 1061.46H840.167C820.824 1039.84 787.372 1033.7 735.942 1024.6Z" fill="#FBE7B5"/>
        <path d="M112.872 254.974C153.833 265.215 190.699 266.808 222.103 259.753C246.907 254.292 267.615 243.369 280.587 229.032C286.276 222.66 288.324 217.881 286.731 213.558C282.407 201.724 250.321 197.401 180.003 187.843C170.673 186.705 160.888 185.34 150.42 183.747C78.7372 173.961 28.2179 192.394 0.227564 207.869V211.737C5.91667 208.551 12.516 205.138 20.2532 201.952C46.6506 190.801 90.7981 179.195 149.965 187.388C160.433 188.753 170.445 190.119 179.548 191.484C244.176 200.131 279.904 205.138 283.545 214.923C284.683 217.881 282.862 221.75 278.083 226.984C242.128 266.353 169.535 265.67 113.554 251.788C66.9038 240.183 30.266 239.728 7.73718 241.32C5.00641 241.548 2.50321 241.776 0 242.003V245.417C2.50321 245.189 5.23397 244.961 7.96474 244.734C30.7212 243.141 66.9038 243.596 112.872 254.974Z" fill="#FBE7B5"/>
        <path d="M194.112 287.971C286.958 270.449 336.795 250.195 373.433 235.631C398.01 225.846 417.125 217.881 439.654 214.923C496.317 207.413 496.09 201.952 495.862 199.904C495.635 197.401 495.407 192.849 440.564 191.484C354.545 189.436 340.436 188.298 258.968 168.272C185.237 150.067 95.1218 127.766 0.682678 174.644V178.513C94.6666 131.179 184.554 153.481 258.285 171.458C339.981 191.712 354.317 192.622 440.792 194.897C483.119 196.035 491.311 198.766 492.676 200.131C490.856 202.179 477.657 206.731 439.426 211.737C416.67 214.695 397.099 222.66 372.295 232.673C335.885 247.237 286.048 267.49 193.657 284.785C87.3846 304.811 27.5352 293.205 0.682678 284.103V287.971C28.2179 297.074 88.0673 307.997 194.112 287.971Z" fill="#FBE7B5"/>
        <path d="M548.43 196.49C547.974 189.891 532.5 181.471 415.077 176.465C328.83 172.824 292.647 161.673 237.805 144.833C214.593 137.779 187.968 129.586 152.923 120.484C91.2532 104.554 45.7404 109.561 18.2052 116.388C11.6058 117.981 5.68914 120.029 0.45517 121.849V125.49C5.91671 123.442 12.0609 121.394 19.1154 119.801C46.1956 112.974 91.2532 108.195 152.24 123.897C187.285 133 213.683 140.965 236.894 148.247C291.965 165.086 328.375 176.237 415.077 180.106C531.817 185.112 544.788 193.532 545.016 196.945C545.244 198.994 539.782 206.731 464.458 220.157C415.532 228.804 364.785 248.83 311.08 269.994C208.221 310.045 101.949 351.917 0.45517 316.872V320.513C27.0802 329.615 54.1603 333.484 81.468 333.484C158.157 333.484 236.212 302.763 312.446 272.952C366.151 252.016 416.67 231.99 465.141 223.343C549.112 208.324 548.657 200.131 548.43 196.49Z" fill="#FBE7B5"/>
        <path d="M93.7564 883.961C107.865 883.961 123.112 883.051 137.904 881.686C160.66 879.41 173.631 873.038 173.176 864.391C172.721 853.468 150.647 845.276 121.974 845.276C115.83 845.276 109.231 845.731 102.631 846.413H101.721C73.5032 849.599 53.25 851.875 36.1827 864.619C32.3141 867.577 32.0865 870.308 32.7692 871.901C35.5 881.003 66.2212 883.961 93.7564 883.961ZM38.2308 867.577C54.6154 855.288 74.641 853.013 102.176 850.054H103.087C109.686 849.372 116.058 848.917 122.202 848.917C154.288 848.917 169.535 858.247 169.99 864.619C170.218 869.397 162.026 875.769 137.904 878.272C123.34 879.865 108.093 880.548 93.984 880.548C58.484 880.548 37.7757 875.542 36.1827 870.99C35.5 869.852 36.8654 868.487 38.2308 867.577Z" fill="#FBE7B5"/>
        <path d="M210.042 871.9C213.683 857.336 196.843 842.772 165.667 833.897C96.9423 814.327 28.218 844.593 0.455139 859.384V863.253C26.625 848.917 95.8045 817.285 164.756 837.083C193.429 845.276 209.814 858.474 206.628 870.99C201.622 891.016 141.09 911.269 0.455139 882.141V885.554C143.821 915.365 204.353 893.974 210.042 871.9Z" fill="#FBE7B5"/>
        <path d="M311.08 865.756C297.426 858.474 287.641 847.551 277.401 835.945C256.237 812.051 232.343 784.971 166.349 782.013C89.4327 778.599 33.9071 808.41 0.455139 830.256V834.352C33.2244 812.506 88.75 782.013 166.349 785.426C230.75 788.157 254.189 814.782 274.897 838.221C285.365 850.054 295.378 861.433 309.487 868.942C323.596 876.224 330.423 885.782 328.375 894.657C324.506 911.497 288.779 930.157 200.256 932.433C80.7853 935.163 41.4167 925.606 0.455139 906.263V910.131C36.6378 926.971 72.1378 936.301 161.798 936.301C173.631 936.301 186.375 936.074 200.256 935.846C276.946 934.026 326.099 919.006 331.561 895.567C334.064 884.644 326.554 873.949 311.08 865.756Z" fill="#FBE7B5"/>
        <path d="M153.833 916.731C225.971 909.904 268.753 902.849 273.304 886.465C275.353 878.955 269.663 870.308 255.099 859.612C253.051 858.019 250.776 856.426 248.728 854.833C205.263 822.064 146.324 777.461 0.455139 848.689V852.558C145.641 781.102 203.897 825.25 246.679 857.564C248.955 859.157 251.003 860.75 253.051 862.343C265.795 871.901 271.484 879.638 269.891 885.554C265.795 899.891 220.51 906.945 153.378 913.317C76.6891 920.599 21.8462 903.304 0.455139 894.657V898.298C23.2115 907.173 77.8269 923.785 153.833 916.731Z" fill="#FBE7B5"/>
        <path d="M217.096 495.282C250.548 496.875 294.013 504.385 344.532 513.032C419.628 525.776 513.385 541.705 605.548 543.07C609.417 543.07 613.058 543.07 616.699 543.07C693.843 543.07 743.679 530.782 746.638 510.984C748.458 498.24 730.026 485.042 696.119 475.029C625.574 454.093 544.788 443.852 449.212 443.852C439.199 443.852 428.731 444.08 418.263 444.308C351.359 445.673 295.378 456.596 250.548 465.244C228.702 469.34 209.814 472.981 192.747 475.029C151.33 480.035 151.558 483.221 151.558 485.497C151.558 488.228 151.785 492.096 217.096 495.282ZM192.974 478.442C210.042 476.394 229.157 472.753 251.003 468.429C295.833 459.782 351.587 449.086 418.263 447.721C428.731 447.494 438.971 447.266 449.212 447.266C544.333 447.266 624.891 457.506 695.208 478.215C726.84 487.545 744.817 499.606 743.224 510.529C741.176 523.955 707.042 539.657 616.699 539.657C613.058 539.657 609.417 539.657 605.548 539.657C513.612 538.292 420.083 522.59 344.987 509.619C294.468 500.971 250.776 493.689 217.096 491.869C169.535 489.593 157.93 486.862 155.199 485.269C157.247 484.359 164.756 481.856 192.974 478.442Z" fill="#FBE7B5"/>
        <path d="M383.218 498.468C406.202 499.833 436.468 503.929 468.327 508.253C512.474 514.17 558.215 520.314 590.301 520.314C603.272 520.314 612.83 519.404 619.885 517.356C630.58 514.397 636.269 508.253 635.359 501.426C633.083 485.497 594.625 467.064 493.131 467.064C458.087 467.064 418.035 469.34 373.66 473.891C346.353 476.622 332.471 480.945 332.471 486.407C332.471 488.683 332.699 495.282 383.218 498.468ZM373.888 477.304C418.035 472.753 458.087 470.705 492.904 470.705C599.176 470.705 630.125 491.413 631.718 502.109C632.401 507.115 627.622 511.667 618.747 514.17C612.147 515.99 602.59 517.128 590.301 517.128C558.442 517.128 512.929 510.984 468.782 505.067C436.696 500.744 406.429 496.647 383.446 495.282C337.25 492.324 335.885 486.635 335.885 486.635C335.885 485.269 342.256 480.49 373.888 477.304Z" fill="#FBE7B5"/>
        <path d="M12.0609 515.763C27.9904 515.763 45.968 514.17 65.0833 512.577C88.5224 510.529 114.92 508.253 144.048 508.253C179.321 508.253 212.317 511.667 245.314 518.721C337.705 538.519 477.202 564.689 622.16 564.689C641.958 564.689 661.756 564.234 680.872 563.096C715.917 561.276 745.955 560.138 770.077 559.455C834.933 557.179 864.516 556.042 869.067 545.346C871.115 540.34 868.385 534.196 859.965 524.41C846.083 508.481 803.529 482.766 739.811 460.692C686.788 442.26 600.542 420.413 492.221 420.413C456.494 420.413 420.083 422.917 384.356 427.696C266.705 443.397 201.622 455.458 154.061 464.333C99.218 474.346 66.2212 480.49 0.682709 483.904V487.317C66.4487 483.904 99.6731 477.76 154.744 467.747C202.305 459.099 267.388 447.038 384.811 431.336C420.311 426.558 456.494 424.054 492.221 424.054C687.699 424.054 830.837 496.647 857.462 526.913C864.744 535.333 867.474 540.795 866.109 544.208C862.24 553.083 829.471 554.221 770.077 556.269C745.955 557.179 715.917 558.09 680.872 559.91C661.984 560.82 642.186 561.276 622.388 561.276C477.885 561.276 338.615 535.106 246.224 515.308C213.228 508.253 179.776 504.84 144.276 504.84C114.92 504.84 88.2949 507.115 64.8558 509.163C45.968 510.756 27.9904 512.349 12.0609 512.349C7.96476 512.349 4.09617 512.349 0.682709 512.122V515.535C4.09617 515.763 7.96476 515.763 12.0609 515.763Z" fill="#FBE7B5"/>
        <path d="M1050.89 533.968C1013.12 518.038 961.231 496.192 895.465 461.375C867.474 446.583 841.76 429.516 814.452 411.311C740.038 361.929 663.122 310.727 537.051 310.727C452.397 310.727 354.772 333.711 238.715 380.817C225.288 386.279 212.545 391.513 200.256 396.747C132.67 425.192 79.4199 447.494 0.455139 452.728V456.141C0.455139 456.141 0.455139 456.141 0.682703 456.141C80.3301 450.679 133.808 428.378 201.622 399.933C213.91 394.699 226.654 389.465 240.08 384.003C355.683 336.897 452.853 314.141 537.051 314.141C662.212 314.141 738.673 365.115 812.404 414.269C838.574 431.564 865.426 449.542 893.644 464.333C959.638 499.151 1011.52 520.997 1049.3 536.926C1097.77 557.407 1122.12 567.647 1117.11 580.619C1112.56 592.452 1105.28 593.135 1070.01 595.41C1035.19 597.913 976.933 602.01 871.798 620.67C793.061 634.779 721.606 641.606 653.109 641.606C556.622 641.606 467.417 627.952 372.067 598.596C244.404 559.227 152.24 543.298 53.9327 543.298C38.4583 543.298 22.3013 543.753 6.37181 544.436C4.32373 544.436 2.27565 544.663 0.455139 544.663V548.077C2.50322 548.077 4.55129 547.849 6.59937 547.849C22.7564 546.939 38.6859 546.711 54.1603 546.711C152.013 546.711 243.949 562.641 371.157 601.782C466.962 631.138 556.622 645.019 653.337 645.019C721.833 645.019 793.744 638.192 872.708 624.083C977.615 605.423 1035.87 601.327 1070.69 598.824C1105.96 596.32 1115.52 595.638 1120.75 581.756C1126.44 566.054 1102.78 556.042 1050.89 533.968Z" fill="#FBE7B5"/>
        <path d="M20.4808 527.824C33.9071 527.596 48.016 527.369 63.0353 527.369C126.298 527.369 210.042 531.92 351.359 566.282C448.074 589.721 547.974 600.872 665.17 600.872C744.59 600.872 824.692 595.865 900.016 590.859C1022.22 582.667 1046.79 575.385 1047.93 566.054C1048.84 557.635 1031.09 549.215 974.657 531.465C930.054 517.356 890.913 496.875 849.497 475.256C796.702 447.494 741.859 418.821 667.673 398.112C606.231 381.045 547.292 372.853 487.215 372.853C410.07 372.853 328.603 386.734 238.032 415.179C92.8462 460.692 87.1571 461.375 33.2244 467.292C25.7148 468.202 17.2949 469.112 7.50963 470.25C5.23398 470.478 2.95834 470.933 0.682703 471.16V474.574C2.95834 474.119 5.46155 473.891 7.96475 473.663C17.75 472.526 26.1699 471.615 33.6795 470.705C88.0673 464.788 93.7564 464.106 239.17 418.365C329.058 389.692 410.298 376.038 486.987 376.038C546.837 376.038 605.548 384.231 666.535 401.298C740.494 421.779 795.109 450.452 847.904 478.215C889.548 500.061 928.689 520.542 973.519 534.651C998.551 542.615 1045.43 557.407 1044.52 565.599C1043.15 576.295 966.465 582.894 899.788 587.445C824.692 592.452 744.59 597.458 665.17 597.458C548.202 597.458 448.529 586.535 352.042 563.096C210.269 528.506 126.298 523.955 62.8077 523.955C47.7885 523.955 33.6795 524.183 20.2532 524.41C13.4263 524.638 6.82693 524.638 0.455139 524.865V528.279C7.0545 528.051 13.6539 528.051 20.4808 527.824Z" fill="#FBE7B5"/>
        <path d="M306.984 -36.9904C278.994 -55.1955 241.446 -72.718 201.849 -91.3782C164.984 -108.673 126.981 -126.651 94.2115 -145.994C60.7596 -165.792 26.625 -168.522 0.455134 -166.019V-162.606C25.9423 -165.109 59.6218 -162.606 92.391 -143.035C125.16 -123.692 163.391 -105.715 200.256 -88.1923C239.853 -69.5321 277.173 -52.0096 304.936 -34.0321C338.388 -12.4135 343.622 -3.31092 342.029 0.330101C340.208 4.88138 325.189 10.1154 244.631 -5.58654C136.994 -26.2949 60.5321 -27.8878 0.22757 -9.22758V-5.58654C60.3045 -24.2468 136.311 -22.8814 244.176 -2.17308C288.551 6.47435 339.981 14.6666 345.215 1.46792C348.401 -5.81413 336.567 -17.875 306.984 -36.9904Z" fill="#FBE7B5"/>
        <path d="M1619.35 105.692C1605.92 109.561 1592.04 113.657 1577.7 117.753C1465.74 149.84 1407.03 135.958 1310.09 112.747C1276.41 104.782 1238.18 95.6795 1191.3 87.0321C1042.24 59.2693 968.285 81.343 866.109 111.837C843.353 118.663 819.686 125.718 793.516 132.772C702.035 157.122 624.891 150.522 550.478 144.151C508.151 140.51 468.099 137.096 425.772 138.917C356.138 142.103 323.141 131.18 281.497 117.753C251.914 108.196 218.917 97.5 166.577 89.3077C93.3013 77.702 35.5001 85.4391 0.4552 95.6795V100.458C34.8174 90.218 92.3911 82.0257 165.894 93.859C217.779 102.051 250.776 112.747 279.676 122.305C322.003 135.958 355.228 146.881 425.545 143.696C467.644 141.875 507.468 145.288 549.795 148.93C584.157 151.888 618.974 154.846 655.612 154.846C698.849 154.846 744.362 150.75 794.426 137.324C820.824 130.269 844.263 123.215 867.247 116.388C968.968 86.1218 1042.24 64.2757 1190.39 91.8109C1237.04 100.458 1275.27 109.561 1308.95 117.526C1406.8 140.737 1465.74 154.846 1578.84 122.305C1593.18 118.208 1607.06 114.112 1620.48 110.244C1734.95 76.7917 1814.14 53.5802 1916.09 76.109V71.3302C1813.69 49.0289 1734.27 72.2404 1619.35 105.692Z" fill="#DFC990"/>
        <path d="M1764.53 -2.17305C1691.03 -4.44869 1615.25 11.4808 1545.39 43.7949C1428.42 98.1827 1328.06 77.2468 1175.82 45.6154C1136 37.1955 1094.58 28.7757 1048.16 20.3558C917.766 -2.85576 819.686 23.7692 732.984 47.2083C668.583 64.7308 607.596 81.343 540.92 76.3366C457.631 70.1923 407.795 57.2212 359.551 44.7051C316.542 33.5545 271.939 21.9487 204.353 16.0321C119.926 8.52246 46.1955 20.3558 0.2276 32.8718V37.8782C40.5064 26.7276 113.327 12.6186 203.897 20.5834C271.029 26.5 313.356 37.6506 358.414 49.2564C406.885 61.7724 456.949 74.7436 540.465 80.8878C608.051 85.8942 669.266 69.2821 734.122 51.5321C820.141 28.093 917.766 1.69554 1047.25 24.6795C1093.67 32.8718 1134.86 41.5192 1174.91 49.9391C1259.34 67.4615 1328.06 81.7981 1392.46 81.7981C1444.58 81.7981 1494.19 72.468 1547.21 47.891C1616.16 15.8045 1691.26 0.102588 1764.3 2.37823C1819.37 3.97118 1871.26 15.577 1916.09 36.0577V31.0513C1871.26 11.0256 1819.6 -0.35254 1764.53 -2.17305Z" fill="#DFC990"/>
        <path d="M1648.47 41.7468C1616.62 51.0769 1589.99 60.8622 1566.32 69.5096C1482.35 100.458 1421.82 122.987 1229.3 81.7981C1041.56 41.7468 935.971 68.8269 833.795 94.9968C800.798 103.417 766.436 112.292 729.798 118.663C626.256 136.869 559.125 117.753 457.631 88.8526C412.801 76.109 362.055 61.5449 298.792 47.891C192.974 24.9071 108.776 32.1891 56.6635 42.4295C33.452 46.9808 14.5641 52.4423 0.2276 57.4487V62.2276C14.5641 57.2212 33.9071 51.532 57.8013 46.9808C151.103 28.7756 239.853 39.9263 297.881 52.6699C360.689 66.3237 411.664 80.8878 456.266 93.6314C528.631 114.34 586.205 130.724 653.109 130.724C677.231 130.724 702.718 128.676 730.481 123.67C767.346 117.298 801.481 108.423 834.705 99.7757C940.978 72.468 1041.33 46.5257 1228.16 86.5769C1422.05 127.994 1483.04 105.465 1567.69 74.0609C1591.13 65.4135 1617.75 55.4007 1649.61 46.2981C1774.09 10.1154 1854.87 24.4519 1916.09 48.5737V43.5673C1854.42 19.2179 1773.18 5.56412 1648.47 41.7468Z" fill="#DFC990"/>
        <path d="M1588.4 453.865C1573.61 459.554 1558.13 465.471 1542.66 471.388C1409.08 521.907 1241.59 515.763 1071.14 454.548C1008.34 432.019 953.266 403.574 899.789 376.266C817.638 333.939 732.529 290.247 614.651 264.077C464.913 230.625 384.356 264.077 298.792 299.577C272.167 310.5 244.859 321.878 214.365 331.891C120.609 362.385 38.2308 351.689 0.45517 343.724V348.276C39.1411 356.24 121.747 366.708 215.731 335.987C246.452 325.974 273.987 314.596 300.612 303.445C388.907 266.808 465.369 235.176 613.74 268.173C730.936 294.343 815.817 337.808 897.74 379.907C951.218 407.442 1006.52 435.888 1069.55 458.417C1163.99 492.551 1257.75 509.619 1345.13 509.619C1416.59 509.619 1483.72 498.24 1544.25 475.484C1559.72 469.567 1575.2 463.651 1589.99 457.961C1701.95 414.952 1800.26 377.176 1916.32 376.949V372.397C1799.35 372.625 1700.81 410.628 1588.4 453.865Z" fill="#DFC990"/>
        <path d="M1760.44 405.849C1702.86 417.683 1648.25 447.038 1595.45 475.484C1527.18 512.349 1456.64 550.353 1376.08 553.766C1224.75 559.91 1113.47 502.109 959.638 422.234C903.202 392.878 839.256 359.654 765.298 325.292C537.051 219.474 393.913 275.91 267.615 325.747C240.308 336.442 214.593 346.683 188.878 354.875C114.01 378.769 59.3943 381.045 26.8526 378.542C16.6122 377.859 7.73722 376.494 0.45517 375.128V379.907C33.9071 386.051 96.4872 389.01 190.244 358.971C216.186 350.779 241.901 340.538 269.436 329.843C394.824 280.462 537.051 224.253 763.478 329.388C837.208 363.522 901.154 396.747 957.59 426.103C1104.37 502.336 1212.69 558.545 1354.01 558.545C1361.29 558.545 1368.8 558.317 1376.31 558.09C1458 554.676 1529 516.445 1597.73 479.352C1698.31 425.192 1793.66 373.763 1916.32 427.013V422.006C1864.66 400.388 1813.46 395.154 1760.44 405.849Z" fill="#DFC990"/>
        <path d="M1664.63 560.365C1571.33 528.279 1513.3 552.401 1456.87 575.612C1410.21 594.955 1361.74 614.981 1292.56 603.603C1189.25 586.535 1089.12 527.824 962.369 453.865C900.926 417.91 831.519 377.176 751.189 335.077C657.888 286.151 569.365 267.263 480.615 277.503C402.106 286.606 333.381 316.644 266.705 345.545C240.535 356.923 215.731 367.619 190.471 377.404C110.596 407.67 54.843 414.724 22.3013 415.179C13.8815 415.407 6.82696 414.952 0.45517 414.497V419.276C34.1347 421.779 96.0321 417.91 192.519 381.5C218.006 371.942 242.811 361.019 268.981 349.641C335.202 320.74 403.699 290.929 481.526 282.054C569.365 271.814 656.978 290.474 749.369 339.173C829.471 381.272 899.106 422.006 960.321 457.961C1087.3 532.375 1187.88 591.086 1291.88 608.381C1306.22 610.657 1319.64 611.795 1332.39 611.795C1382.22 611.795 1420.91 595.865 1458.69 580.163C1516.71 556.042 1571.56 533.513 1663.27 564.917C1773.86 602.92 1865.8 598.369 1916.32 590.859V586.308C1904.48 588.128 1890.15 589.949 1873.76 590.859C1826.43 593.362 1751.79 590.176 1664.63 560.365Z" fill="#DFC990"/>
        <path d="M1531.73 755.16C1449.13 710.103 1371.07 667.321 1295.07 649.115C1142.83 612.478 1030.87 628.862 876.122 651.391C837.891 656.853 798.067 662.769 754.375 668.231C545.926 694.401 410.071 653.212 266.022 609.747C258.285 607.471 250.776 605.196 243.038 602.692C140.407 571.744 48.9263 566.965 0.45517 569.24V574.019C39.1411 572.426 129.712 573.337 241.901 607.016C249.638 609.292 257.375 611.567 264.885 614.071C409.16 657.763 545.699 698.952 755.058 672.782C798.75 667.321 838.574 661.631 876.805 655.942C1031.09 633.413 1142.6 617.256 1293.93 653.667C1369.25 671.872 1447.08 714.199 1529.46 759.256C1642.79 821.154 1770.45 890.789 1916.09 907.856V903.305C1771.59 886.01 1644.83 816.83 1531.73 755.16Z" fill="#DFC990"/>
        <path d="M1525.59 775.413C1409.53 700.317 1315.55 659.583 1229.53 647.295C1149.88 636.144 1080.93 649.115 1001.28 664.135C956.907 672.554 906.388 682.112 848.814 688.256C602.59 714.199 540.465 700.09 334.519 653.211C322.914 650.481 310.625 647.75 298.109 645.019C174.769 617.029 92.1635 619.077 44.375 625.904C26.1699 628.407 11.6058 631.82 0.45517 635.006V640.013C43.2372 627.269 136.083 613.16 296.971 649.57C309.715 652.529 321.776 655.26 333.381 657.763C539.782 704.869 602.135 718.978 849.042 692.808C906.843 686.663 957.362 677.106 1001.74 668.686C1080.93 653.667 1149.43 640.695 1228.39 651.846C1313.73 663.907 1407.26 704.413 1522.63 779.282C1689.21 887.147 1822.56 927.881 1904.94 942.901C1908.58 943.583 1912.22 944.266 1915.86 944.721V940.17C1912.45 939.715 1909.04 939.032 1905.39 938.349C1757.25 911.042 1617.07 834.808 1525.59 775.413Z" fill="#DFC990"/>
        <path d="M676.093 755.388C601.224 743.555 516.115 730.128 412.346 706.234C247.817 668.458 133.58 685.753 66.6763 706.917C39.1411 715.792 17.2949 725.805 0.45517 734.907V740.141C17.2949 730.811 39.8238 720.343 68.2693 711.24C134.49 690.304 248.045 673.237 411.208 710.785C515.205 734.68 600.087 748.106 675.183 759.939C827.423 784.061 928.006 799.99 1029.5 880.776C1149.88 976.58 1223.38 1027.1 1318.28 1061.69H1331.93C1231.58 1027.1 1157.39 976.808 1032.46 877.135C930.055 795.667 829.016 779.737 676.093 755.388Z" fill="#DFC990"/>
        <path d="M575.51 716.247C500.413 703.958 422.814 691.442 339.526 672.554C260.788 654.577 145.869 640.696 45.5129 675.74C27.5353 682.112 12.7436 688.939 0.45517 695.538V700.772C12.7436 693.718 28.218 686.436 46.8782 680.064C146.096 645.474 260.106 659.356 338.388 677.106C421.904 695.994 499.503 708.737 574.827 721.026C744.817 748.788 891.596 772.683 1017.21 857.792C1171.73 962.471 1327.15 1030.06 1487.59 1061.92H1512.62C1344.22 1032.56 1181.29 963.609 1019.71 854.151C893.189 767.904 745.955 744.01 575.51 716.247Z" fill="#DFC990"/>
        <path d="M612.603 977.263C515.66 946.087 495.407 947.224 252.596 1000.47C126.981 1028.01 53.4776 1033.02 14.109 1032.33C9.10261 1032.33 4.55132 1032.11 0.45517 1031.88V1036.66C41.8718 1038.93 118.106 1034.84 253.506 1005.25C502.462 950.638 518.163 952.003 611.237 981.814C642.186 991.827 677.231 995.923 714.324 1000.47C780.09 1008.21 853.365 1017.09 919.359 1061.92H927.324C859.054 1013.22 783.048 1004.12 715.006 995.923C677.913 991.372 643.324 987.276 612.603 977.263Z" fill="#DFC990"/>
        <path d="M1125.76 988.641C1113.24 979.766 1098.91 969.526 1082.98 958.603C969.878 880.32 913.897 866.894 717.054 827.071C624.208 808.41 565.269 786.564 508.151 765.401C444.66 741.962 384.583 719.888 283.09 702.138C182.051 684.615 101.949 703.731 52.7949 722.846C31.4039 731.038 13.8815 740.141 0.45517 747.878V753.112C14.109 745.147 32.3141 735.59 54.6154 726.942C103.314 708.054 182.279 689.167 282.407 706.462C383.446 723.984 443.295 746.058 506.558 769.497C563.904 790.66 623.071 812.506 716.144 831.394C912.304 870.99 968.058 884.644 1080.47 962.243C1096.4 973.167 1110.51 983.407 1123.03 992.282C1164.9 1022.09 1194.48 1043.48 1237.27 1061.46H1249.33C1201.54 1042.8 1170.59 1020.73 1125.76 988.641Z" fill="#DFC990"/>
        <path d="M782.593 876.679C644.234 855.061 562.538 821.836 475.837 786.792C422.587 765.173 367.744 742.872 298.109 723.301C204.58 696.904 119.926 713.971 65.3109 732.859C38.9135 741.961 16.8398 752.429 0.45517 761.304V766.538C16.8398 757.663 39.5962 746.74 66.9039 737.183C120.837 718.522 204.58 701.683 296.971 727.853C366.378 747.423 421.221 769.724 474.244 791.115C561.173 826.388 643.096 859.612 782.138 881.458C973.519 911.497 1059.99 969.07 1179.46 1048.49C1186.06 1052.81 1192.89 1057.37 1199.49 1061.92H1207.68C1198.81 1056.23 1190.39 1050.31 1181.74 1044.85C1061.81 964.519 974.885 906.945 782.593 876.679Z" fill="#DFC990"/>
        <path d="M661.756 903.077C645.827 902.394 631.035 901.711 617.154 901.029C450.805 893.974 406.202 891.926 288.551 786.109C235.529 738.32 163.846 729.673 81.468 760.849C48.6988 773.593 20.2532 790.205 0.45517 802.949V808.41C20.0257 795.439 49.1539 778.144 83.0609 765.173C185.01 726.487 249.41 756.981 285.365 789.522C404.154 896.478 449.212 898.526 616.926 905.58C630.808 906.263 645.827 906.718 661.529 907.628C770.987 912.634 847.904 927.881 910.939 956.554C963.051 980.449 1006.06 1014.36 1043.84 1061.46H1049.75C966.92 956.099 856.324 912.179 661.756 903.077Z" fill="#DFC990"/>
        <path d="M705.449 968.615C668.128 967.25 632.856 966.112 603.955 960.423L596.901 959.058C504.965 941.08 504.965 941.08 320.183 971.118C302.433 974.077 282.862 977.263 261.471 980.676C190.699 992.054 90.7981 999.564 16.6122 970.663C10.9231 968.388 5.46159 966.112 0.682739 963.609V968.615C4.77889 970.663 9.33017 972.711 14.3366 974.532C89.6603 1004.12 190.699 996.606 262.154 985C283.545 981.586 303.115 978.401 320.865 975.442C504.965 945.631 504.965 945.631 595.99 963.381L603.045 964.747C632.173 970.436 667.673 971.801 705.221 973.167C803.984 976.58 915.035 980.676 985.808 1061.69H991.724C919.587 976.352 801.253 972.029 705.449 968.615Z" fill="#DFC990"/>
        <path d="M683.147 920.144C526.128 903.987 413.939 922.647 314.949 939.26C263.519 947.907 214.821 956.099 162.936 959.285C91.4808 963.609 37.5481 950.865 0.45517 936.301V941.08C38.0032 955.644 91.9359 968.16 163.391 963.837C215.503 960.651 264.202 952.458 315.859 943.811C419.401 926.516 526.356 908.538 682.692 924.695C869.295 944.038 955.997 1005.03 1002.65 1061.69H1008.56C961.686 1003.43 874.529 939.715 683.147 920.144Z" fill="#DFC990"/>
    </mask>
    <g mask="url(#mask0_16_470)">
        <rect y="-6" width="1917" height="871" fill="url(#paint0_linear_16_470)"/>
    </g>
    <defs>
        <linearGradient id="paint0_linear_16_470" x1="958.5" y1="-6" x2="958.5" y2="865" gradientUnits="userSpaceOnUse">
            <stop offset="0.419792" stop-color="#FBE7B5" stop-opacity="0"/>
            <stop offset="1" stop-color="#FBE7B5" stop-opacity="0.05"/>
        </linearGradient>
    </defs>
</svg>
