<svg width="1917" height="1355" viewBox="0 0 1917 1355" fill="none" xmlns="http://www.w3.org/2000/svg">
<mask id="mask0_16_1427" style="mask-type:alpha" maskUnits="userSpaceOnUse" x="0" y="-1" width="1917" height="1356">
<path d="M643.324 177.727C624.891 177.727 591.439 180.003 544.106 184.554C436.923 194.567 397.554 225.971 362.737 253.506C346.125 266.705 330.423 279.221 308.804 288.323C284.228 298.791 272.167 307.211 273.532 313.128C273.987 315.404 276.49 318.134 285.365 318.134C294.923 318.134 312.673 314.721 331.561 304.936C337.022 302.205 341.574 299.702 345.897 297.426C368.881 285.365 378.211 280.586 436.24 257.375C454.901 249.865 471.285 242.811 485.849 236.439C525.445 219.144 556.849 205.49 605.32 197.07C661.529 187.285 661.301 182.961 661.074 181.141C660.391 179.093 657.433 177.727 643.324 177.727ZM285.138 314.948C279.676 314.948 276.945 313.811 276.718 312.673C276.718 312.445 275.808 306.073 309.942 291.509C332.016 282.179 347.945 269.663 364.785 256.237C399.147 228.929 438.288 197.98 544.333 187.968C591.667 183.416 624.891 181.368 643.324 181.368C650.833 181.368 654.474 181.823 656.067 182.051C651.971 184.099 637.862 188.195 604.183 194.112C555.256 202.532 523.852 216.413 484.029 233.708C468.782 240.307 453.08 247.134 434.42 254.644C376.163 277.855 366.833 282.862 343.622 294.923C339.526 297.198 334.747 299.474 329.285 302.432C311.308 311.535 294.24 314.948 285.138 314.948Z" fill="#FBE7B5"/>
<path d="M1328.97 1038.83C1293.47 1048.16 1247.51 1071.83 1194.03 1099.36C1133.5 1130.54 1058.17 1169.22 973.292 1199.72C916.401 1219.97 861.558 1224.29 796.929 1224.29C771.67 1224.29 743.68 1223.61 714.324 1222.93C677.686 1222.02 636.269 1221.11 589.391 1221.11C457.631 1221.11 328.375 1229.07 182.279 1246.37C175.907 1247.05 169.763 1247.51 164.074 1247.51C138.587 1247.51 121.064 1240.22 119.699 1229.3C118.788 1221.34 125.615 1200.4 210.497 1178.55C261.699 1165.36 301.067 1135.77 342.712 1104.6C401.195 1060.68 461.728 1015.39 558.67 1015.39C567.772 1015.39 577.33 1015.85 586.888 1016.53C658.343 1022.67 715.689 1037.69 766.208 1051.12C820.596 1065.46 872.026 1079.11 930.965 1079.11C962.596 1079.11 994.683 1075.24 1028.59 1067.5C1194.94 1029.27 1293.25 1009.7 1347.41 1004.01C1353.78 1003.33 1359.47 1003.1 1364.47 1003.1C1374.49 1003.1 1386.55 1004.47 1387.46 1010.61C1388.82 1021.31 1351.28 1032.91 1328.97 1038.83ZM1384.04 1010.61C1383.82 1009.02 1379.49 1006.06 1364.47 1006.06C1359.47 1006.06 1353.78 1006.29 1347.63 1006.97C1293.7 1012.66 1195.39 1032.23 1029.27 1070.46C994.91 1078.43 962.824 1082.29 930.737 1082.29C871.115 1082.29 819.686 1068.64 765.07 1054.3C712.276 1040.42 657.433 1025.86 586.205 1019.71C576.875 1018.8 567.317 1018.58 558.215 1018.58C462.183 1018.58 402.333 1063.63 344.305 1107.1C302.66 1138.5 262.837 1168.31 211.179 1181.74C144.048 1199.04 121.519 1217.47 122.885 1228.62C124.022 1237.72 140.635 1243.87 164.074 1243.87C169.763 1243.87 175.907 1243.41 182.051 1242.73C328.147 1225.43 457.631 1217.24 589.619 1217.24C636.497 1217.24 678.141 1218.15 714.551 1219.06C743.907 1219.74 771.897 1220.43 797.157 1220.43C861.558 1220.43 915.945 1216.33 972.381 1196.08C1056.81 1165.81 1132.13 1127.12 1192.66 1095.95C1246.14 1068.41 1292.34 1044.52 1328.29 1035.19C1373.35 1023.58 1384.5 1014.03 1384.04 1010.61Z" fill="#FBE7B5"/>
<path d="M1165.36 1086.16C1151.25 1093.45 1131.68 1102.55 1110.06 1111.88C1097.31 1117.34 1084.12 1123.94 1070.01 1131.22C1011.29 1160.8 931.192 1201.54 784.641 1201.54C768.256 1201.54 750.962 1201.08 733.667 1199.95C680.872 1196.76 629.215 1195.39 580.516 1195.39C426 1195.17 305.391 1210.87 207.766 1226.12C195.25 1228.16 183.644 1229.07 174.314 1229.07C159.75 1229.07 152.24 1226.8 151.785 1222.25C150.648 1212.92 182.962 1202.9 210.497 1196.3C271.256 1181.51 306.984 1158.76 352.269 1129.63C371.612 1117.11 391.865 1104.37 416.442 1090.49C461.728 1065 505.192 1053.62 557.532 1053.62C604.865 1053.62 661.301 1062.72 740.494 1082.98C751.417 1085.71 761.657 1088.44 771.442 1090.94C838.801 1108.46 879.535 1118.93 923.455 1118.93C963.506 1118.93 1006.29 1110.51 1086.85 1087.07C1139.41 1071.83 1172.18 1064.09 1184.24 1064.09C1185.84 1064.09 1190.39 1064.09 1190.84 1067.05C1191.07 1069.1 1191.75 1072.51 1165.36 1086.16ZM1184.02 1067.73C1172.41 1067.73 1139.87 1075.47 1087.76 1090.71C1006.74 1114.38 963.734 1122.57 923.228 1122.57C879.08 1122.57 838.119 1111.88 770.532 1094.36C760.747 1091.85 750.506 1089.12 739.583 1086.39C660.619 1066.14 604.41 1057.04 557.532 1057.04C505.875 1057.04 462.865 1068.19 418.035 1093.67C393.458 1107.55 373.433 1120.3 354.09 1132.59C308.577 1161.71 272.394 1184.7 211.18 1199.72C166.122 1210.64 154.744 1219.06 155.199 1222.02C155.426 1223.16 159.067 1225.89 174.542 1225.89C183.644 1225.89 195.25 1224.75 207.539 1222.93C305.164 1207.46 426 1191.75 580.516 1191.75C629.215 1191.75 680.872 1193.35 733.894 1196.3C751.189 1197.21 768.256 1197.9 784.641 1197.9C930.282 1197.9 1010.16 1157.62 1068.41 1128.04C1082.52 1120.98 1095.95 1114.15 1108.69 1108.69C1158.07 1087.53 1185.38 1072.51 1187.2 1068.19C1186.75 1067.96 1185.84 1067.73 1184.02 1067.73Z" fill="#FBE7B5"/>
<path d="M883.176 1175.37C863.378 1177.87 840.849 1179.24 814.224 1179.24C775.083 1179.24 732.529 1176.51 687.471 1173.78C650.378 1171.5 611.92 1169 572.779 1168.09C559.125 1167.63 546.381 1167.63 534.776 1167.63C460.135 1167.63 426.91 1175.14 371.84 1187.66C363.647 1189.48 355 1191.53 345.442 1193.57C329.74 1196.99 316.542 1198.81 307.212 1198.81C298.109 1198.81 293.558 1197.21 292.875 1193.8C291.737 1186.52 312.218 1178.78 329.74 1173.32C342.484 1169.45 358.413 1161.03 376.619 1151.25C423.497 1126.21 487.442 1092.08 572.096 1092.08C600.314 1092.08 628.987 1095.95 657.66 1103.69C789.647 1138.96 839.939 1149.2 881.811 1149.2C894.554 1149.2 906.843 1148.29 921.635 1146.01C929.372 1144.87 936.199 1144.19 941.888 1144.19C952.356 1144.19 957.59 1146.24 957.817 1150.11C958.5 1158.98 927.096 1169.68 883.176 1175.37ZM941.888 1147.15C936.426 1147.15 929.827 1147.83 922.317 1148.97C907.526 1151.25 895.01 1152.16 882.038 1152.16C839.711 1152.16 789.192 1141.92 656.978 1106.64C628.532 1099.13 600.086 1095.27 572.324 1095.27C488.58 1095.27 424.862 1129.4 378.439 1154.21C360.006 1163.99 344.077 1172.64 330.878 1176.73C301.978 1185.61 296.288 1191.98 296.516 1193.35C296.516 1193.8 298.792 1195.62 307.439 1195.62C313.811 1195.62 325.644 1194.71 344.987 1190.39C354.317 1188.34 363.192 1186.29 371.385 1184.47C426.455 1171.96 459.907 1164.45 535.003 1164.45C546.609 1164.45 559.353 1164.67 573.006 1164.9C612.147 1166.04 650.606 1168.31 687.699 1170.59C732.756 1173.32 775.311 1176.05 814.224 1176.05C840.622 1176.05 863.151 1174.91 882.721 1172.41C937.564 1165.36 954.859 1153.75 954.631 1150.34C954.404 1149.2 952.128 1147.15 941.888 1147.15Z" fill="#FBE7B5"/>
<path d="M695.664 1153.29C692.705 1153.29 689.064 1152.84 684.741 1152.16C666.535 1148.97 632.401 1142.83 583.247 1142.83C552.071 1142.83 519.074 1145.33 485.167 1150.11C478.112 1151.02 471.968 1151.7 466.734 1151.7C456.266 1151.7 450.577 1149.65 449.894 1146.01C448.984 1140.32 459.907 1133.95 482.208 1126.9C510.654 1117.79 532.045 1114.15 556.394 1114.15C578.923 1114.15 604.183 1117.57 636.497 1124.62C669.039 1131.9 703.628 1142.37 702.946 1150.11C702.718 1153.29 697.257 1153.29 695.664 1153.29ZM635.814 1127.81C603.728 1120.75 578.696 1117.34 556.394 1117.34C532.5 1117.34 511.337 1120.98 483.119 1129.86C457.859 1137.82 452.853 1143.74 453.08 1145.1C453.308 1146.01 455.811 1148.06 466.507 1148.06C471.513 1148.06 477.657 1147.61 484.484 1146.7C518.619 1141.92 551.615 1139.41 583.019 1139.41C632.628 1139.41 666.763 1145.56 685.196 1148.74C689.292 1149.43 692.933 1149.88 695.664 1149.88C697.939 1149.88 699.077 1149.65 699.532 1149.43C697.712 1146.24 680.644 1137.82 635.814 1127.81Z" fill="#FBE7B5"/>
<path d="M1459.14 1341.26C1476.66 1345.81 1491 1350.37 1501.92 1354.92H1492.37C1483.49 1351.73 1472.34 1348.32 1458.23 1344.68C1363.56 1320.55 1285.74 1315.55 1161.26 1325.56C1092.99 1331.25 1021.54 1343.99 970.106 1354.92H953.721C1006.06 1343.54 1085.25 1328.52 1161.03 1322.15C1285.96 1312.13 1364.02 1316.91 1459.14 1341.26Z" fill="#FBE7B5"/>
<path d="M621.933 1353.32C627.167 1351.5 627.849 1350.37 627.849 1350.37C626.029 1345.36 573.462 1337.85 455.356 1342.63C414.849 1344.22 377.984 1349 346.353 1354.92H328.603C363.875 1347.63 406.885 1341.04 455.128 1339.21C538.417 1335.8 628.987 1337.62 631.035 1349.68C631.49 1351.96 629.442 1353.55 626.939 1354.92H616.699C618.519 1354.46 620.34 1353.78 621.933 1353.32Z" fill="#FBE7B5"/>
<path d="M854.276 1338.08C902.064 1337.62 950.308 1328.29 1006.29 1317.37C1065 1305.99 1131.45 1293.25 1219.29 1285.05C1236.58 1283.46 1253.42 1282.78 1269.81 1282.78C1365.16 1282.78 1444.12 1307.13 1509.21 1327.15C1546.98 1338.76 1579.75 1348.77 1610.24 1353.1C1613.88 1353.55 1617.53 1354.23 1620.48 1354.69H1599.09C1571.56 1349.91 1541.97 1340.81 1508.29 1330.34C1432.06 1307.13 1337.39 1278 1219.52 1288.7C1131.9 1296.66 1065.46 1309.4 1006.97 1320.78C950.763 1331.7 902.292 1341.04 854.276 1341.49C803.756 1341.95 802.163 1348.77 802.163 1349.45C802.163 1351.05 804.439 1352.87 808.535 1354.92H802.163C799.888 1353.1 798.75 1351.28 798.75 1349.45C798.75 1344.9 804.667 1338.76 854.276 1338.08Z" fill="#FBE7B5"/>
<path d="M1652.8 1354.92C1642.79 1350.82 1629.36 1346.5 1613.66 1341.49C1586.12 1332.62 1551.76 1321.46 1513.98 1304.4C1418.41 1261.16 1348.77 1236.36 1188.8 1256.84C1107.55 1267.3 1036.78 1282.55 974.202 1295.98C907.981 1310.09 850.862 1322.37 794.882 1326.7C740.494 1330.79 734.122 1338.76 733.894 1341.95C733.667 1345.36 739.128 1349.68 750.962 1354.92H743.224C735.26 1350.82 730.481 1346.27 730.708 1341.72C731.164 1332.62 752.1 1326.47 794.882 1323.29C850.635 1318.96 907.753 1306.67 973.747 1292.56C1036.33 1279.14 1107.1 1263.89 1188.57 1253.42C1227.03 1248.42 1260.25 1246.37 1290.06 1246.37C1385.18 1246.37 1444.35 1269.12 1515.35 1301.21C1552.9 1318.28 1587.26 1329.2 1614.8 1338.08C1634.59 1344.45 1650.52 1349.68 1661.22 1354.92H1652.8Z" fill="#FBE7B5"/>
<path d="M697.029 1354.92H691.34C693.843 1353.32 695.664 1351.5 696.574 1349.68C697.484 1347.41 697.029 1344.9 695.208 1341.72C682.92 1322.6 500.414 1319.42 383.446 1326.7C335.43 1329.66 273.987 1342.17 222.103 1354.92H207.994C262.609 1341.26 330.878 1326.47 383.218 1323.29C416.442 1321.24 461.272 1319.87 506.558 1319.87C596.218 1319.87 688.381 1325.11 697.939 1339.9C700.442 1343.99 701.125 1347.63 699.76 1351.05C699.077 1352.41 698.167 1353.78 697.029 1354.92Z" fill="#FBE7B5"/>
<path d="M1777.05 1309.63C1780.46 1309.18 1783.88 1308.72 1787.52 1308.04C1804.36 1305.54 1823.24 1302.8 1846.46 1302.8C1863.75 1302.8 1881.5 1304.4 1900.16 1307.58C1904.94 1308.27 1910.4 1309.4 1916.09 1310.77V1314.18C1911.31 1313.04 1905.85 1311.91 1899.48 1310.77C1880.82 1307.58 1863.52 1306.22 1846.23 1306.22C1823.24 1306.22 1804.36 1308.95 1787.74 1311.45C1784.1 1311.91 1780.69 1312.59 1777.28 1313.04C1768.4 1314.18 1764.53 1317.14 1764.76 1319.42C1764.99 1324.2 1783.88 1336.71 1866.25 1336.71C1877.18 1336.71 1888.78 1336.48 1900.84 1336.03C1906.76 1335.8 1911.77 1335.35 1916.09 1334.89V1338.3C1910.63 1338.76 1905.39 1339.21 1900.84 1339.44C1888.78 1339.9 1876.95 1340.12 1866.03 1340.12C1818.24 1340.12 1762.03 1334.66 1761.12 1319.64C1761.12 1314.64 1767.04 1311 1777.05 1309.63Z" fill="#FBE7B5"/>
<path d="M1671 1192.21C1627.77 1181.51 1605.24 1168.09 1603.64 1162.17C1603.42 1161.03 1603.64 1159.89 1604.33 1159.21C1605.24 1158.3 1607.51 1157.16 1615.71 1159.21C1618.66 1159.89 1621.85 1160.8 1625.26 1161.94C1651.21 1169.22 1694.44 1181.51 1793.21 1182.42C1846 1182.88 1887.42 1177.64 1916.32 1172.18V1175.6C1887.19 1181.29 1845.77 1186.29 1793.21 1185.84C1694.21 1184.93 1650.52 1172.41 1624.35 1165.13C1620.94 1164.22 1617.75 1163.31 1614.79 1162.4C1609.79 1161.03 1607.74 1161.26 1607.06 1161.49C1608.65 1165.36 1629.36 1178.33 1671.91 1188.79C1724.94 1201.77 1777.96 1210.41 1916.32 1193.57V1196.99C1777.73 1214.05 1724.25 1205.41 1671 1192.21Z" fill="#FBE7B5"/>
<path d="M1810.27 1228.39C1666 1241.36 1624.58 1214.05 1533.78 1154.21L1528.55 1150.79C1458 1104.14 1444.35 1089.12 1445.26 1079.56C1445.71 1074.33 1451.18 1071.6 1456.87 1069.32C1465.06 1066.14 1473.48 1071.37 1489.18 1080.7C1514.21 1095.72 1556.31 1120.75 1643.01 1143.51C1738.36 1168.31 1852.37 1156.71 1916.09 1146.47V1149.88C1852.14 1160.12 1737.68 1171.73 1642.1 1146.7C1554.72 1123.94 1512.62 1098.68 1487.36 1083.66C1472.57 1074.79 1464.6 1070.01 1458 1072.51C1451.63 1075.01 1448.9 1077.06 1448.67 1079.79C1447.76 1089.12 1472.11 1109.37 1530.37 1147.83L1535.6 1151.25C1625.72 1210.64 1666.68 1237.72 1809.82 1224.75C1854.65 1220.65 1889.46 1219.97 1916.09 1221.11V1224.52C1889.69 1223.61 1855.1 1224.29 1810.27 1228.39Z" fill="#FBE7B5"/>
<path d="M1797.53 1245.23C1649.38 1259.11 1593.4 1220.2 1548.57 1189.02C1542.2 1184.47 1536.06 1180.37 1529.91 1176.28C1511.25 1164.22 1493.73 1151.7 1476.66 1139.41C1447.31 1118.48 1422.05 1100.27 1402.25 1092.99C1392.69 1089.58 1388.6 1086.39 1388.6 1082.98C1388.37 1078.2 1395.42 1075.24 1405.21 1071.14C1411.58 1068.41 1418.63 1065.46 1424.1 1061.59C1426.37 1059.99 1428.65 1058.17 1430.92 1056.58C1445.71 1045.2 1459.82 1034.28 1494.87 1054.08C1498.05 1055.9 1501.47 1057.95 1505.11 1059.99C1545.84 1083.66 1614.11 1123.48 1743.82 1132.13C1822.79 1137.37 1880.82 1124.85 1916.54 1112.79V1115.97C1880.36 1128.04 1822.11 1140.55 1743.6 1135.32C1612.97 1126.44 1544.25 1086.62 1503.29 1062.72C1499.65 1060.68 1496.23 1058.63 1493.05 1056.81C1460.05 1038.15 1447.54 1047.71 1432.97 1058.86C1430.7 1060.68 1428.42 1062.27 1426.14 1064.09C1420.46 1068.19 1413.17 1071.14 1406.57 1074.1C1399.97 1076.83 1391.78 1080.47 1392.01 1082.75C1392.01 1083.43 1392.92 1085.71 1403.62 1089.58C1424.1 1097.09 1449.36 1115.29 1478.94 1136.46C1496.01 1148.74 1513.53 1161.26 1531.96 1173.32C1538.33 1177.42 1544.25 1181.74 1550.85 1186.06C1595.22 1217.01 1650.52 1255.7 1797.53 1241.82C1848.96 1237.04 1887.64 1236.13 1916.54 1237.49V1241.13C1888.1 1239.77 1849.64 1240.22 1797.53 1245.23Z" fill="#FBE7B5"/>
<path d="M1787.97 1262.07C1722.89 1270.95 1668.27 1267.08 1615.71 1249.33C1567.46 1233.17 1520.81 1206.09 1465.06 1161.03C1367.21 1082.52 1316.69 1092.54 1283.23 1099.13C1281.87 1099.36 1280.5 1099.59 1279.14 1100.04C1270.95 1101.64 1265.26 1100.95 1262.75 1097.77C1261.16 1095.95 1260.93 1093.67 1261.84 1090.94C1265.26 1081.16 1288.47 1063.63 1337.62 1055.21C1411.12 1042.7 1421.59 1037.46 1433.88 1020.85C1438.43 1014.94 1444.58 1011.98 1453.22 1011.98C1472.34 1011.98 1502.83 1026.31 1550.39 1052.03C1573.61 1064.54 1636.41 1094.58 1721.07 1102.78C1790.02 1109.37 1855.56 1100.04 1916.09 1074.79V1078.43C1855.33 1103.46 1789.79 1112.79 1720.61 1106.19C1635.28 1098 1572.01 1067.73 1548.57 1054.99C1474.39 1014.71 1448.22 1007.2 1436.38 1022.67C1423.41 1039.97 1412.72 1045.43 1337.85 1058.17C1290.29 1066.37 1267.76 1082.98 1264.57 1091.62C1264.12 1092.99 1264.12 1094.13 1264.8 1095.04C1265.48 1095.72 1268.21 1098 1278 1096.18C1279.37 1095.95 1280.73 1095.72 1282.1 1095.27C1316.23 1088.44 1367.66 1078.2 1466.65 1157.85C1522.18 1202.45 1568.37 1229.53 1616.39 1245.46C1668.5 1262.75 1722.66 1266.85 1787.29 1257.97C1845.32 1250.01 1887.19 1250.24 1915.86 1252.97V1256.38C1889.46 1254.79 1847.37 1254.11 1787.97 1262.07Z" fill="#FBE7B5"/>
<path d="M1838.04 762.795C1792.29 762.795 1730.85 757.106 1619.12 742.314C1588.4 738.218 1559.95 736.17 1532.42 736.17C1443.67 736.17 1361.97 756.878 1250.69 807.625C1156.48 850.634 1108.24 871.343 1045.88 871.343C1024.27 871.343 999.917 869.067 967.147 863.833C869.067 848.131 857.689 848.131 841.987 848.131C839.484 848.131 836.981 848.131 834.022 848.131C775.994 846.766 767.801 839.029 766.891 833.567C765.981 828.333 770.305 819.231 817.638 801.481C833.34 795.564 851.09 788.737 870.205 781.455C952.583 750.279 1054.99 711.365 1131.9 684.968C1187.43 665.852 1241.82 656.977 1303.26 656.977C1344.45 656.977 1390.19 660.846 1447.08 669.038C1505.11 677.458 1567.92 692.705 1628.9 707.497C1705.14 725.929 1777.05 743.452 1826.88 744.134C1906.08 745.045 1906.3 750.961 1906.3 753.237C1906.3 755.058 1906.53 758.699 1873.54 761.429C1862.61 762.34 1851.01 762.795 1838.04 762.795ZM1826.88 747.775C1776.82 747.093 1704.68 729.57 1628.22 711.138C1567.46 696.346 1504.43 681.099 1446.63 672.679C1389.73 664.487 1344.22 660.618 1303.26 660.618C1241.59 660.618 1189.02 669.266 1133.04 688.609C1056.13 715.006 953.721 753.92 871.343 785.096C852.228 792.378 834.478 799.205 818.776 805.122C775.311 821.506 769.622 829.926 770.305 833.34C770.987 837.208 780.09 843.808 834.022 845.173C836.981 845.173 839.484 845.173 841.76 845.173C857.689 845.173 869.067 845.4 967.603 860.875C1000.14 866.109 1024.27 868.384 1045.88 868.384C1089.35 868.384 1116.2 865.654 1249.33 804.894C1361.06 753.92 1442.98 732.984 1532.42 732.984C1560.18 732.984 1588.62 735.032 1619.57 739.128C1731.08 753.92 1792.29 759.609 1838.04 759.609C1850.78 759.609 1862.16 759.154 1873.31 758.243C1894.24 756.423 1900.62 754.375 1902.44 753.465C1898.34 751.417 1879 748.458 1826.88 747.775Z" fill="#FBE7B5"/>
<path d="M1384.96 719.103C1341.72 727.295 1261.39 742.314 1179.92 770.987C1160.8 777.587 1145.1 785.551 1130.08 793.061C1090.49 812.859 1053.17 831.519 962.596 831.519C940.978 831.519 916.628 830.381 890.458 828.333C854.503 825.375 849.952 820.141 849.724 816.5C849.497 813.997 849.042 807.17 895.465 797.385C930.054 790.103 983.077 770.987 1044.52 748.914C1080.7 735.942 1118.25 722.516 1156.71 709.545C1207 692.705 1260.48 684.285 1315.09 684.285C1350.37 684.285 1379.27 687.926 1397.7 690.43C1425.23 694.298 1428.88 698.849 1428.88 702.263C1428.88 706.359 1423.87 711.821 1384.96 719.103ZM1397.02 693.843C1378.58 691.112 1349.91 687.699 1314.87 687.699C1260.48 687.699 1207.68 696.119 1157.62 712.731C1119.16 725.474 1081.61 739.128 1045.43 752.099C983.987 774.173 930.737 793.289 895.92 800.798C853.821 809.673 852.91 815.59 852.91 816.273C852.91 816.955 854.276 821.962 890.458 824.92C916.628 827.196 940.75 828.106 962.369 828.106C1052.26 828.106 1089.35 809.673 1128.49 790.103C1143.74 782.365 1159.67 774.628 1178.78 767.801C1260.48 739.128 1341.04 723.882 1384.27 715.917C1424.32 708.407 1425.23 702.946 1425.23 702.49C1425.23 701.808 1424.32 697.712 1397.02 693.843Z" fill="#FBE7B5"/>
<path d="M1782.05 796.702C1743.82 796.702 1704.23 794.199 1664.86 789.192C1646.88 786.917 1629.59 785.779 1613.43 785.779C1528.09 785.779 1474.16 817.183 1411.81 853.365C1350.59 889.093 1280.96 929.372 1165.81 949.17C1123.71 956.452 1087.07 959.865 1053.85 959.865C980.801 959.865 935.971 942.798 888.41 924.593C838.346 905.477 786.461 885.679 695.436 882.493C616.471 879.763 576.875 872.026 574.599 858.372C573.234 850.407 584.385 841.532 609.189 831.519C625.801 824.692 650.378 815.817 681.327 804.211C766.891 772.808 896.147 725.019 1021.99 665.17C1114.38 621.25 1196.99 601.679 1290.06 601.679C1374.26 601.679 1470.52 618.519 1592.72 654.474C1728.58 694.526 1839.63 705.449 1916.54 711.82V715.234C1839.63 708.862 1728.12 697.939 1591.81 657.66C1469.84 621.705 1374.03 604.865 1290.06 604.865C1197.67 604.865 1115.52 624.436 1023.58 668.128C897.513 727.977 768.256 775.766 682.692 807.17C651.744 818.548 627.167 827.65 610.782 834.25C580.971 846.311 577.558 853.82 578.24 857.461C579.378 863.833 596.218 875.211 695.891 878.625C787.372 881.811 839.484 901.609 889.776 920.952C936.881 938.929 981.484 955.997 1054.08 955.997C1087.07 955.997 1123.48 952.583 1165.36 945.301C1280.05 925.731 1349.23 885.452 1410.21 849.952C1473.02 813.542 1527.18 781.91 1613.43 781.91C1629.81 781.91 1647.34 783.048 1665.31 785.324C1704.68 790.33 1743.82 792.833 1782.05 792.833C1833.94 792.833 1879.45 788.054 1916.32 781V784.641C1879.91 791.923 1834.85 796.702 1782.05 796.702Z" fill="#FBE7B5"/>
<path d="M1823.24 780.772C1780.69 780.772 1741.32 776.904 1703.32 773.035C1667.36 769.394 1633.46 765.981 1598.64 765.981C1563.37 765.981 1531.28 769.622 1500.56 777.131C1449.13 789.875 1402.93 813.086 1353.78 837.891C1276.86 876.804 1197.21 916.856 1091.62 916.856C1013.34 916.856 957.135 902.292 902.747 888.41C848.814 874.529 798.067 861.558 727.75 861.558C710.455 861.558 692.25 862.468 673.817 864.061C669.494 864.516 665.397 864.744 661.529 864.744C644.689 864.744 633.994 861.102 633.311 855.186C631.945 845.628 655.385 836.753 675.41 831.064C737.99 813.314 900.926 752.554 1046.79 692.477C1141.92 653.336 1209.96 631.945 1296.89 631.945C1346.5 631.945 1400.88 639 1468.02 654.247C1648.93 695.208 1828.02 732.984 1912.22 732.984C1913.81 732.984 1915.18 732.984 1916.77 732.984V736.397C1915.18 736.397 1913.81 736.397 1912.22 736.397C1827.57 736.397 1648.47 698.622 1467.33 657.66C1400.43 642.641 1346.27 635.586 1296.89 635.586C1210.64 635.586 1143.05 656.75 1048.16 695.891C902.292 755.968 739.128 816.955 676.548 834.705C646.282 843.352 636.269 850.862 636.952 854.958C637.407 858.144 645.372 861.558 661.756 861.558C665.625 861.558 669.721 861.33 673.817 861.103C692.478 859.51 710.683 858.599 728.205 858.599C798.75 858.599 849.952 871.798 904.112 885.679C958.272 899.561 1014.48 914.125 1092.08 914.125C1196.76 914.125 1275.95 874.074 1352.64 835.388C1401.79 810.583 1448.45 787.144 1500.1 774.401C1531.05 766.663 1563.59 763.022 1599.09 763.022C1634.14 763.022 1668.04 766.436 1704.23 770.077C1742.23 773.945 1781.37 777.814 1823.93 777.814C1850.1 777.814 1874.9 776.449 1899.48 773.263C1905.85 772.58 1911.54 771.67 1917 770.76V774.173C1911.54 775.083 1905.85 775.766 1899.93 776.676C1874.45 779.407 1849.41 780.772 1823.24 780.772Z" fill="#FBE7B5"/>
<path d="M1794.34 926.869L1793.66 926.641C1777.05 921.179 1762.26 915.946 1749.51 911.167C1724.94 902.292 1705.37 895.465 1684.88 890.686C1671 887.5 1661.67 882.721 1660.31 878.17C1659.85 876.804 1660.31 875.439 1661.22 874.301C1663.95 871.343 1671.69 871.115 1682.38 873.619L1685.34 874.301C1713.33 881.128 1778.87 896.83 1845.09 895.692C1874.67 895.237 1898.79 893.872 1916.32 892.279V895.692C1898.57 897.285 1874.67 898.651 1845.09 899.106C1778.41 900.016 1712.65 884.314 1684.43 877.487L1681.47 876.804C1669.64 874.074 1664.63 875.439 1663.49 876.349C1663.27 876.577 1663.27 876.577 1663.27 877.032C1663.95 879.308 1670.32 883.859 1685.34 887.272C1706.05 892.051 1725.62 899.106 1750.42 907.981C1763.39 912.532 1777.96 917.766 1794.57 923.455L1795.25 923.683C1830.98 935.516 1870.35 948.715 1916.09 935.288V938.929C1870.12 952.128 1830.53 938.929 1794.34 926.869Z" fill="#FBE7B5"/>
<path d="M1762.94 941.433C1654.62 895.92 1581.8 874.984 1534.01 874.984C1517.85 874.984 1508.52 871.798 1508.29 865.881C1507.84 856.096 1534.92 846.994 1577.25 842.897C1604.1 840.394 1638.23 846.538 1677.6 854.048C1744.28 866.337 1825.29 881.356 1916.32 864.288V867.702C1824.84 884.769 1743.6 869.75 1676.92 857.462C1637.55 850.179 1603.64 843.808 1577.47 846.538C1527.18 851.317 1511.25 861.785 1511.48 865.881C1511.48 868.157 1517.63 871.571 1533.78 871.571C1582.03 871.571 1655.3 892.734 1764.08 938.474C1827.57 965.099 1876.04 964.644 1905.62 959.41C1909.26 958.728 1912.9 958.045 1916.09 957.135V960.548C1912.9 961.231 1909.72 961.913 1906.3 962.596C1876.49 967.603 1827.11 968.285 1762.94 941.433Z" fill="#FBE7B5"/>
<path d="M1736.54 948.715C1636.41 913.442 1560.63 889.093 1497.14 900.016C1459.37 906.615 1433.2 903.657 1428.88 892.279C1425.46 883.176 1435.93 871.343 1460.05 856.779C1514.21 823.782 1578.16 806.942 1728.8 823.782C1814.37 833.34 1878.77 822.644 1916.32 812.859V816.5C1909.95 818.093 1902.66 819.913 1894.93 821.506C1859.65 828.561 1802.08 835.388 1728.58 827.195C1578.84 810.356 1515.58 827.195 1461.87 859.737C1440.48 872.708 1429.56 884.314 1432.29 891.141C1435.7 900.471 1462.33 902.747 1496.69 896.83C1507.38 895.01 1518.31 894.099 1529.69 894.099C1586.8 894.099 1653.94 915.945 1737.91 945.529C1818.24 973.974 1871.03 975.795 1916.54 964.872V968.285C1870.35 979.208 1817.1 977.16 1736.54 948.715Z" fill="#FBE7B5"/>
<path d="M1830.75 607.596C1800.71 607.596 1775 598.266 1753.84 580.061C1749.29 576.192 1747.69 573.006 1748.83 570.048C1750.42 565.497 1758.84 563.676 1776.82 563.676C1792.75 563.676 1814.37 565.269 1837.12 566.862C1844.63 567.317 1852.37 568 1860.11 568.455C1871.94 569.365 1907.9 571.641 1909.04 582.791C1909.72 590.529 1893.33 596.673 1879.45 600.314C1862.16 605.32 1845.77 607.596 1830.75 607.596ZM1905.62 583.247C1905.39 581.881 1902.66 574.827 1859.88 572.096C1852.14 571.641 1844.41 570.958 1836.9 570.503C1814.14 568.91 1792.75 567.317 1776.82 567.317C1756.79 567.317 1752.7 570.048 1752.24 571.641C1752.02 572.323 1752.02 573.916 1756.34 577.785C1776.82 595.535 1801.85 604.41 1830.98 604.41C1845.77 604.41 1861.7 602.134 1878.54 597.583C1898.79 591.666 1905.85 586.205 1905.62 583.247Z" fill="#FBE7B5"/>
<path d="M1826.43 618.519C1777.28 618.519 1744.05 596.9 1717.2 579.606C1711.51 575.965 1706.28 572.551 1701.27 569.593C1698.99 568.227 1692.17 564.359 1693.53 558.897C1698.54 540.465 1804.81 540.009 1817.1 540.009C1837.81 540.009 1858.52 540.692 1876.95 542.057C1893.11 543.195 1906.3 545.471 1916.32 548.429V552.07C1906.3 548.884 1892.88 546.609 1876.72 545.471C1858.52 544.106 1837.81 543.423 1817.1 543.423C1751.11 543.423 1699.45 550.477 1696.95 559.808C1696.49 561.628 1698.54 564.131 1703.09 566.634C1708.1 569.593 1713.56 573.006 1719.25 576.647C1745.64 593.715 1778.64 615.106 1826.66 615.106C1848.5 615.106 1872.17 610.554 1896.52 601.452C1904.03 598.721 1910.86 595.535 1916.54 592.349V596.218C1911.08 599.176 1904.71 601.907 1897.66 604.638C1872.62 613.968 1848.73 618.519 1826.43 618.519Z" fill="#FBE7B5"/>
<path d="M1896.29 618.519C1868.07 627.849 1841.9 632.173 1816.87 632.173C1769.31 632.173 1734.72 615.788 1704 601.224C1699.45 599.176 1695.12 597.128 1690.8 595.08C1659.62 580.971 1644.38 567.317 1644.83 554.573C1645.29 543.423 1657.58 533.865 1682.38 525.218C1731.99 508.15 1779.1 499.731 1826.43 499.731C1856.24 499.731 1886.28 503.144 1916.32 509.743V513.157C1886.28 506.557 1856.24 502.916 1826.43 502.916C1779.55 502.916 1732.9 511.109 1683.52 528.176C1660.54 536.141 1648.7 545.016 1648.25 554.346C1647.79 565.269 1662.81 578.24 1692.17 591.666C1696.49 593.715 1700.81 595.763 1705.37 597.811C1735.63 612.147 1770.22 628.304 1816.87 628.304C1841.68 628.304 1867.16 623.981 1895.15 614.65C1902.44 612.147 1909.49 609.644 1916.09 607.141V610.782C1909.72 613.968 1902.89 616.471 1896.29 618.519Z" fill="#FBE7B5"/>
<path d="M1600.69 431.234C1536.51 436.468 1510.34 425.772 1507.38 414.166C1505.56 407.112 1511.48 400.057 1523.77 394.141C1541.06 386.176 1563.37 374.115 1597.04 355.91C1628.68 339.07 1671.69 315.859 1729.03 286.048C1800.71 248.955 1872.4 235.301 1916.55 230.522V233.936C1872.63 238.942 1801.85 252.368 1730.63 289.234C1673.51 318.817 1630.27 342.029 1598.64 358.868C1564.73 377.073 1542.43 389.134 1525.13 397.099C1514.67 401.878 1509.21 408.022 1510.57 413.029C1513.3 423.724 1542.2 432.372 1600.46 427.593C1631.18 425.09 1659.4 415.532 1691.94 404.609C1745.42 386.631 1810.05 365.013 1916.32 363.647V367.288C1810.5 368.654 1746.33 390.272 1693.08 408.022C1660.31 419.173 1631.86 428.731 1600.69 431.234Z" fill="#FBE7B5"/>
<path d="M1592.49 396.872C1591.36 395.961 1590.9 394.824 1591.13 393.458C1591.36 392.093 1592.04 387.997 1611.61 380.26C1623.21 375.708 1638.46 367.288 1657.8 356.365C1714.7 324.506 1805.04 273.987 1916.54 266.25V269.663C1805.95 277.401 1716.06 327.692 1659.62 359.324C1640.28 370.247 1624.81 378.894 1612.97 383.445C1595 390.5 1594.54 393.913 1594.54 393.913C1596.59 398.01 1642.33 395.734 1728.12 360.234C1793.43 333.154 1866.71 325.416 1916.54 323.596V327.009C1867.16 328.83 1794.34 336.567 1729.49 363.42C1652.8 395.279 1600.69 403.243 1592.49 396.872Z" fill="#FBE7B5"/>
<path d="M1765.9 423.724C1628.9 456.266 1604.1 458.086 1524.91 441.702L1521.49 441.019C1468.7 430.096 1445.49 425.089 1444.8 415.532C1444.35 408.705 1456.18 401.878 1485.54 391.865C1504.88 385.266 1531.73 368.881 1565.64 348.4C1648.02 298.109 1768.63 224.605 1916.32 210.952V214.365C1769.54 228.019 1649.38 301.067 1567.46 351.131C1533.33 371.839 1506.47 388.224 1486.68 395.051C1460.96 403.698 1447.99 410.525 1448.22 415.077C1448.67 422.359 1480.99 429.186 1522.18 437.605L1525.59 438.288C1604.1 454.445 1628.68 452.625 1765.21 420.311C1829.16 405.291 1879.91 403.698 1916.32 406.202V409.615C1880.36 407.112 1829.62 408.705 1765.9 423.724Z" fill="#FBE7B5"/>
<path d="M1713.1 469.237C1614.34 501.096 1552.9 478.795 1503.52 461.045C1487.59 455.356 1472.34 449.667 1458.23 447.163C1421.59 440.336 1399.97 429.641 1399.06 417.808C1398.61 409.615 1407.71 402.333 1426.14 396.189C1454.13 386.859 1475.53 374.798 1522.4 348.173C1555.63 329.285 1601.37 303.57 1671.46 266.022C1780.46 207.766 1867.62 192.974 1916.09 189.561V192.974C1868.07 196.16 1781.37 211.179 1673.05 268.981C1602.96 306.301 1557.45 332.243 1524.22 351.131C1477.12 377.756 1455.5 390.045 1427.28 399.375C1410.9 404.836 1402.02 411.208 1402.48 417.58C1403.16 427.365 1425.23 437.606 1458.69 443.75C1473.25 446.481 1488.5 451.942 1504.65 457.859C1553.58 475.609 1614.34 497.683 1711.96 466.051C1799.8 437.606 1869.21 439.881 1916.09 448.074V451.487C1869.67 443.295 1800.94 441.019 1713.1 469.237Z" fill="#FBE7B5"/>
<path d="M1042.93 41.1892C1032.46 52.1122 1022.45 60.9871 1014.48 68.2692C1004.47 77.3718 994.91 86.0192 995.821 88.75C996.048 89.2051 996.958 89.8879 998.779 90.1154C1009.7 92.3911 1079.56 58.0289 1142.83 0.227615H1147.83C1084.57 58.9391 1011.98 96.4872 998.096 93.5289C996.958 93.3013 993.545 92.6186 992.635 89.6603C991.269 84.8814 998.779 78.0545 1012.43 65.766C1020.4 58.484 1030.18 49.609 1040.65 38.9135C1052.94 26.1699 1064.54 12.5161 1074.1 0.227615H1078.43C1068.19 12.9712 1055.9 27.7629 1042.93 41.1892Z" fill="#FBE7B5"/>
<path d="M1816.87 75.5513C1677.37 116.968 1579.98 162.936 1430.92 257.375C1338.53 315.859 1258.43 355 1166.49 355C1136.91 355 1108.24 351.587 1075.24 347.718C1034.73 342.939 988.993 337.478 930.509 337.25C880.445 337.022 873.163 333.154 872.708 329.058C872.481 326.099 871.798 320.638 936.426 306.301C1005.83 291.055 1070.01 258.74 1151.47 217.779C1187.88 199.574 1228.85 178.865 1275.95 157.019C1402.7 98.0801 1512.39 77.1443 1651.2 50.7469C1678.97 45.5129 1707.64 40.0513 1737.91 33.9071C1802.99 20.9359 1842.13 18.2051 1863.52 18.2051C1889.92 18.2051 1903.8 22.0738 1904.94 29.811C1907.21 46.1956 1850.78 65.5385 1816.87 75.5513ZM1901.53 30.7212C1901.3 28.6731 1897.66 21.8463 1863.52 21.8463C1842.13 21.8463 1803.22 24.5769 1738.59 37.5481C1708.55 43.4648 1679.65 48.9263 1651.89 54.3879C1513.3 80.7853 1403.84 101.494 1277.54 160.205C1230.67 182.051 1189.48 202.76 1153.29 220.965C1071.83 261.926 1007.2 294.24 937.564 309.715C881.811 322.003 876.577 327.465 876.349 328.603C876.804 329.74 882.266 333.609 930.737 333.837C989.448 334.064 1035.42 339.526 1075.92 344.305C1108.92 348.173 1137.59 351.587 1166.95 351.587C1232.71 351.587 1302.58 335.202 1429.56 254.644C1578.84 159.978 1676.46 114.01 1816.42 72.3655C1880.82 53.0226 1902.66 37.7756 1901.53 30.7212Z" fill="#FBE7B5"/>
<path d="M1747.01 77.827C1733.13 81.468 1717.88 84.654 1701.72 88.295C1622.76 105.817 1514.89 129.712 1427.05 208.676C1342.86 284.455 1291.88 330.423 1151.93 330.423C1120.07 330.423 1083.89 328.148 1041.56 323.596C1027.68 322.003 1016.53 321.093 1007.43 320.183C985.353 318.135 982.622 317.907 982.394 315.176C982.167 312.218 985.125 311.535 1012.66 304.708L1022.22 302.205C1050.21 295.151 1102.32 269.664 1162.85 240.308C1232.49 206.173 1311.45 167.715 1386.32 140.407C1491.23 101.949 1590.9 84.4264 1671 70.3174C1698.99 65.311 1725.39 60.7597 1748.6 55.7533C1774.09 50.2917 1793.21 47.3335 1803.9 47.3335C1808.45 47.3335 1813.46 47.7886 1813.91 50.9745C1814.82 59.6219 1762.94 73.7309 1747.01 77.827ZM1803.67 50.5193C1793.21 50.5193 1773.86 53.4777 1749.06 58.7117C1725.85 63.7181 1699.45 68.2693 1671.46 73.2757C1591.58 87.3847 1492.14 104.907 1387.46 143.365C1313.04 170.673 1234.08 209.132 1164.45 243.039C1103.91 272.622 1051.57 298.109 1023.13 305.164L1013.57 307.667C1001.51 310.625 992.179 312.901 987.856 314.494C991.497 315.176 999.006 315.859 1007.65 316.542C1016.76 317.452 1028.13 318.362 1041.79 319.955C1084.12 324.507 1120.3 326.782 1151.93 326.782C1290.52 326.782 1338.3 283.773 1424.78 205.946C1513.3 126.298 1621.85 102.404 1701.04 84.8816C1717.2 81.2406 1732.45 77.827 1746.33 74.4135C1791.61 62.8078 1808.68 53.9327 1810.27 51.202C1809.59 50.9744 1808 50.5193 1803.67 50.5193Z" fill="#FBE7B5"/>
<path d="M1387.69 208.676C1378.81 214.593 1369.25 221.875 1359.24 229.612C1317.82 261.471 1260.93 305.391 1167.18 305.391C1166.27 305.391 1165.36 305.391 1164.45 305.391C1125.99 304.936 1105.96 301.068 1105.28 293.785C1104.6 287.186 1119.84 280.359 1150.34 273.305C1185.84 265.34 1220.43 247.135 1260.25 226.199C1288.24 211.635 1319.87 194.795 1355.37 180.231C1380.63 169.763 1399.75 164.301 1410.9 164.301C1417.5 164.301 1421.37 166.122 1422.5 169.763C1424.78 177.955 1411.12 193.202 1387.69 208.676ZM1419.09 170.901C1418.41 168.398 1414.08 167.715 1410.9 167.715C1403.39 167.715 1388.14 170.446 1356.74 183.417C1321.46 197.981 1289.83 214.593 1261.84 229.157C1221.56 250.321 1186.97 268.526 1151.02 276.491C1116.88 284.228 1108.24 290.6 1108.69 293.103C1108.92 296.061 1121.21 301.295 1164.45 301.523C1165.36 301.523 1166.27 301.523 1167.18 301.523C1259.79 301.523 1316 258.285 1357.19 226.426C1367.21 218.689 1376.76 211.407 1385.87 205.491C1409.76 190.016 1420.68 176.362 1419.09 170.901Z" fill="#FBE7B5"/>
<path d="M1787.29 119.016C1680.79 154.516 1587.26 215.276 1488.27 279.676C1458.46 299.019 1427.74 319.045 1397.02 337.933C1323.29 383.446 1255.24 404.609 1182.2 404.609C1142.83 404.609 1100.73 398.92 1045.43 385.721C1019.26 379.577 997.868 374.343 980.801 370.247C917.311 355 904.112 351.814 870.205 350.676C801.026 348.628 765.753 343.394 765.298 334.974C765.07 332.244 764.615 326.099 817.183 317.68C912.987 302.205 1002.65 275.125 1129.86 192.064C1267.99 101.721 1421.59 48.2437 1613.2 23.4391C1652.34 18.4327 1689.66 13.1987 1722.43 8.41983C1743.37 5.46152 1763.17 2.7308 1781.6 0.2276H1807.77C1782.28 3.41348 1754.06 7.50958 1722.89 11.8333C1689.89 16.6122 1652.57 21.8462 1613.43 26.8526C1422.28 51.4295 1269.12 104.907 1131.45 194.795C1003.79 278.311 913.67 305.619 817.41 321.093C768.711 328.83 768.484 334.519 768.484 334.747C768.484 335.202 770.304 344.305 870.205 347.263C904.567 348.401 917.766 351.586 981.484 366.833C998.551 370.929 1019.94 376.163 1046.11 382.308C1101.18 395.279 1143.28 400.968 1182.2 400.968C1254.33 400.968 1322.15 380.032 1395.2 334.747C1425.92 315.631 1456.64 295.833 1486.45 276.49C1585.67 212.09 1679.2 151.103 1786.15 115.603C1848.73 94.6667 1890.37 78.7372 1916.32 63.9455V67.8141C1889.92 82.6058 1848.28 98.5353 1787.29 119.016Z" fill="#FBE7B5"/>
<path d="M525.218 27.5354C498.365 31.8591 462.638 32.7693 413.029 30.0385C361.827 27.3077 290.372 11.1507 246.679 0.227659H260.788C304.708 10.9232 367.061 24.1218 413.029 26.625C479.478 30.2661 555.484 29.811 577.33 0.227659H581.426C573.006 13.8815 554.574 22.7565 525.218 27.5354Z" fill="#FBE7B5"/>
<path d="M551.16 43.4649C498.593 56.6636 460.362 65.9937 348.173 40.7341C237.577 15.9296 208.676 8.19247 202.077 0.227734H207.538C219.372 7.50978 262.381 17.7501 348.856 37.3207C460.362 62.5803 498.138 53.0226 550.25 40.0515C567.772 35.7277 587.798 30.7213 612.603 26.6251C654.247 19.7982 680.644 10.9232 699.077 0.227734H705.676C686.788 12.5162 659.026 22.529 613.058 30.0386C588.481 34.1347 568.683 39.1412 551.16 43.4649Z" fill="#FBE7B5"/>
<path d="M735.942 37.3206C697.939 44.1476 650.833 52.5674 592.349 70.3174C481.981 103.997 363.648 70.0899 268.526 42.7822C225.289 30.4938 188.196 19.7982 158.84 17.5225C134.035 15.4745 104.68 10.9232 101.266 0.455231H105.135C108.548 5.46165 123.795 11.3783 159.067 14.1091C188.651 16.3847 226.199 27.0803 269.436 39.5963C364.103 66.6764 481.981 100.356 591.212 67.1315C649.923 49.1539 697.256 40.7341 735.26 34.1347C783.958 25.4873 816.273 19.5706 835.388 0.455231H840.167C820.824 22.0738 787.372 28.2181 735.942 37.3206Z" fill="#FBE7B5"/>
<path d="M112.872 806.942C153.833 796.702 190.699 795.109 222.103 802.163C246.907 807.625 267.615 818.548 280.587 832.884C286.276 839.256 288.324 844.035 286.731 848.359C282.407 860.192 250.32 864.516 180.003 874.073C170.673 875.211 160.888 876.577 150.42 878.17C78.7372 887.955 28.2179 869.522 0.227564 854.048V850.179C5.91667 853.365 12.516 856.779 20.2532 859.965C46.6506 871.115 90.7981 882.721 149.965 874.529C160.433 873.163 170.445 871.798 179.548 870.432C244.176 861.785 279.904 856.779 283.545 846.993C284.683 844.035 282.862 840.166 278.083 834.932C242.128 795.564 169.535 796.247 113.554 810.128C66.9038 821.734 30.266 822.189 7.73718 820.596C5.00641 820.368 2.50321 820.141 0 819.913V816.5C2.50321 816.727 5.23397 816.955 7.96474 817.182C30.7212 818.775 66.9038 818.32 112.872 806.942Z" fill="#FBE7B5"/>
<path d="M194.112 773.945C286.958 791.468 336.795 811.721 373.433 826.285C398.009 836.07 417.125 844.035 439.654 846.993C496.317 854.503 496.09 859.964 495.862 862.013C495.634 864.516 495.407 869.067 440.564 870.432C354.545 872.481 340.436 873.618 258.968 893.644C185.237 911.849 95.1217 934.15 0.682617 887.272V883.404C94.6666 930.737 184.554 908.436 258.285 890.458C339.981 870.205 354.317 869.295 440.792 867.019C483.118 865.881 491.311 863.15 492.676 861.785C490.856 859.737 477.657 855.186 439.426 850.179C416.67 847.221 397.099 839.256 372.295 829.243C335.884 814.679 286.048 794.426 193.657 777.131C87.3845 757.106 27.5352 768.711 0.682617 777.814V773.945C28.2179 764.843 88.0672 753.92 194.112 773.945Z" fill="#FBE7B5"/>
<path d="M548.43 865.426C547.974 872.025 532.5 880.445 415.077 885.452C328.83 889.093 292.648 900.243 237.805 917.083C214.593 924.138 187.968 932.33 152.923 941.432C91.2533 957.362 45.7405 952.356 18.2052 945.529C11.6058 943.936 5.68917 941.888 0.4552 940.067V936.426C5.91674 938.474 12.061 940.522 19.1155 942.115C46.1956 948.942 91.2533 953.721 152.24 938.019C187.285 928.916 213.683 920.952 236.894 913.67C291.965 896.83 328.375 885.679 415.077 881.811C531.817 876.804 544.789 868.384 545.016 864.971C545.244 862.923 539.782 855.186 464.458 841.759C415.532 833.112 364.785 813.086 311.08 791.923C208.221 751.872 101.949 710 0.4552 745.045V741.404C27.0802 732.301 54.1603 728.432 81.468 728.432C158.157 728.432 236.212 759.154 312.446 788.964C366.151 809.9 416.67 829.926 465.141 838.573C549.112 853.593 548.657 861.785 548.43 865.426Z" fill="#FBE7B5"/>
<path d="M93.7564 177.955C107.865 177.955 123.112 178.865 137.904 180.23C160.66 182.506 173.631 188.878 173.176 197.525C172.721 208.448 150.647 216.641 121.974 216.641C115.83 216.641 109.231 216.185 102.631 215.503H101.721C73.5032 212.317 53.2499 210.041 36.1826 197.298C32.3141 194.339 32.0865 191.609 32.7692 190.016C35.4999 180.913 66.2211 177.955 93.7564 177.955ZM38.2307 194.339C54.6153 206.628 74.641 208.904 102.176 211.862H103.086C109.686 212.545 116.058 213 122.202 213C154.288 213 169.535 203.669 169.99 197.298C170.218 192.519 162.026 186.147 137.904 183.644C123.34 182.051 108.093 181.368 93.9839 181.368C58.4839 181.368 37.7756 186.375 36.1826 190.926C35.4999 192.064 36.8653 193.429 38.2307 194.339Z" fill="#FBE7B5"/>
<path d="M210.042 190.016C213.683 204.58 196.843 219.144 165.667 228.019C96.9424 247.59 28.218 217.324 0.4552 202.532V198.663C26.6251 213 95.8046 244.631 164.756 224.833C193.43 216.641 209.814 203.442 206.628 190.926C201.622 170.9 141.09 150.647 0.4552 179.775V176.362C143.821 146.551 204.353 167.942 210.042 190.016Z" fill="#FBE7B5"/>
<path d="M311.08 196.16C297.426 203.442 287.641 214.365 277.401 225.971C256.237 249.865 232.343 276.945 166.349 279.903C89.4328 283.317 33.9071 253.506 0.4552 231.66V227.564C33.2244 249.41 88.7501 279.903 166.349 276.49C230.75 273.759 254.189 247.134 274.897 223.695C285.365 211.862 295.378 200.484 309.487 192.974C323.596 185.692 330.423 176.134 328.375 167.259C324.507 150.419 288.779 131.759 200.256 129.484C80.7853 126.753 41.4167 136.311 0.4552 155.653V151.785C36.6379 134.945 72.1379 125.615 161.798 125.615C173.631 125.615 186.375 125.843 200.256 126.07C276.946 127.891 326.099 142.91 331.561 166.349C334.064 177.272 326.555 187.968 311.08 196.16Z" fill="#FBE7B5"/>
<path d="M153.833 145.186C225.971 152.012 268.753 159.067 273.305 175.451C275.353 182.961 269.664 191.609 255.099 202.304C253.051 203.897 250.776 205.49 248.728 207.083C205.263 239.852 146.324 284.455 0.4552 213.227V209.359C145.641 280.814 203.897 236.666 246.68 204.352C248.955 202.759 251.003 201.166 253.051 199.573C265.795 190.016 271.484 182.278 269.891 176.362C265.795 162.025 220.51 154.971 153.378 148.599C76.6892 141.317 21.8462 158.612 0.4552 167.259V163.618C23.2116 154.743 77.827 138.131 153.833 145.186Z" fill="#FBE7B5"/>
<path d="M217.096 566.634C250.548 565.042 294.013 557.532 344.532 548.884C419.628 536.141 513.385 520.211 605.548 518.846C609.417 518.846 613.058 518.846 616.699 518.846C693.843 518.846 743.68 531.134 746.638 550.933C748.458 563.676 730.026 576.875 696.119 586.888C625.574 607.824 544.789 618.064 449.212 618.064C439.199 618.064 428.731 617.836 418.263 617.609C351.359 616.243 295.378 605.32 250.548 596.673C228.702 592.577 209.814 588.936 192.747 586.888C151.33 581.881 151.558 578.695 151.558 576.42C151.558 573.689 151.785 569.82 217.096 566.634ZM192.975 583.474C210.042 585.522 229.157 589.163 251.003 593.487C295.834 602.134 351.587 612.83 418.263 614.195C428.731 614.423 438.971 614.651 449.212 614.651C544.333 614.651 624.891 604.41 695.208 583.702C726.84 574.372 744.817 562.311 743.224 551.388C741.176 537.961 707.042 522.259 616.699 522.259C613.058 522.259 609.417 522.259 605.548 522.259C513.612 523.625 420.084 539.327 344.987 552.298C294.468 560.945 250.776 568.227 217.096 570.048C169.535 572.324 157.93 575.054 155.199 576.647C157.247 577.558 164.757 580.061 192.975 583.474Z" fill="#FBE7B5"/>
<path d="M383.218 563.448C406.202 562.083 436.468 557.987 468.327 553.663C512.474 547.747 558.215 541.602 590.301 541.602C603.273 541.602 612.83 542.513 619.885 544.561C630.58 547.519 636.269 553.663 635.359 560.49C633.083 576.42 594.625 594.852 493.131 594.852C458.087 594.852 418.035 592.577 373.66 588.025C346.353 585.295 332.471 580.971 332.471 575.509C332.471 573.234 332.699 566.634 383.218 563.448ZM373.888 584.612C418.035 589.163 458.087 591.211 492.904 591.211C599.176 591.211 630.125 570.503 631.718 559.807C632.401 554.801 627.622 550.25 618.747 547.746C612.148 545.926 602.59 544.788 590.301 544.788C558.442 544.788 512.93 550.932 468.782 556.849C436.696 561.173 406.43 565.269 383.446 566.634C337.25 569.593 335.885 575.282 335.885 575.282C335.885 576.647 342.256 581.426 373.888 584.612Z" fill="#FBE7B5"/>
<path d="M12.0609 546.154C27.9904 546.154 45.968 547.747 65.0834 549.339C88.5225 551.388 114.92 553.663 144.048 553.663C179.321 553.663 212.317 550.25 245.314 543.195C337.705 523.397 477.202 497.227 622.16 497.227C641.958 497.227 661.756 497.682 680.872 498.82C715.917 500.641 745.955 501.779 770.077 502.461C834.933 504.737 864.516 505.875 869.067 516.57C871.115 521.577 868.385 527.721 859.965 537.506C846.083 553.436 803.529 579.15 739.811 601.224C686.788 619.657 600.542 641.503 492.221 641.503C456.494 641.503 420.083 639 384.356 634.221C266.705 618.519 201.622 606.458 154.061 597.583C99.218 587.57 66.2212 581.426 0.682739 578.013V574.599C66.4488 578.013 99.6731 584.157 154.744 594.17C202.305 602.817 267.388 614.878 384.811 630.58C420.311 635.359 456.494 637.862 492.221 637.862C687.699 637.862 830.837 565.269 857.462 535.003C864.744 526.583 867.474 521.122 866.109 517.708C862.24 508.833 829.471 507.695 770.077 505.647C745.955 504.737 715.917 503.827 680.872 502.006C661.984 501.096 642.186 500.641 622.388 500.641C477.885 500.641 338.615 526.811 246.224 546.609C213.228 553.663 179.776 557.077 144.276 557.077C114.92 557.077 88.2949 554.801 64.8558 552.753C45.968 551.16 27.9904 549.567 12.0609 549.567C7.96479 549.567 4.0962 549.567 0.682739 549.795V546.381C4.0962 546.154 7.96479 546.154 12.0609 546.154Z" fill="#FBE7B5"/>
<path d="M1050.89 527.949C1013.12 543.878 961.231 565.724 895.465 600.542C867.474 615.333 841.76 632.4 814.452 650.606C740.039 699.987 663.122 751.189 537.051 751.189C452.397 751.189 354.772 728.205 238.715 681.099C225.289 675.638 212.545 670.404 200.256 665.17C132.67 636.724 79.4199 614.423 0.4552 609.189V605.775C0.4552 605.775 0.4552 605.775 0.682764 605.775C80.3302 611.237 133.808 633.538 201.622 661.984C213.91 667.218 226.654 672.452 240.08 677.913C355.683 725.019 452.853 747.776 537.051 747.776C662.212 747.776 738.673 696.801 812.404 647.647C838.574 630.352 865.426 612.375 893.644 597.583C959.638 562.766 1011.52 540.92 1049.3 524.99C1097.77 504.509 1122.12 494.269 1117.11 481.298C1112.56 469.465 1105.28 468.782 1070.01 466.506C1035.19 464.003 976.933 459.907 871.798 441.247C793.061 427.138 721.606 420.311 653.109 420.311C556.622 420.311 467.417 433.965 372.067 463.32C244.404 502.689 152.24 518.618 53.9328 518.618C38.4584 518.618 22.3014 518.163 6.37187 517.481C4.32379 517.481 2.27571 517.253 0.4552 517.253V513.84C2.50328 513.84 4.55135 514.067 6.59943 514.067C22.7565 514.977 38.686 515.205 54.1603 515.205C152.013 515.205 243.949 499.275 371.157 460.134C466.962 430.779 556.622 416.897 653.337 416.897C721.833 416.897 793.744 423.724 872.708 437.833C977.615 456.493 1035.87 460.59 1070.69 463.093C1105.96 465.596 1115.52 466.279 1120.75 480.16C1126.44 495.862 1102.78 505.875 1050.89 527.949Z" fill="#FBE7B5"/>
<path d="M20.4808 534.093C33.9071 534.32 48.0161 534.548 63.0353 534.548C126.298 534.548 210.042 529.997 351.359 495.634C448.074 472.195 547.974 461.045 665.17 461.045C744.59 461.045 824.692 466.051 900.016 471.058C1022.22 479.25 1046.79 486.532 1047.93 495.862C1048.84 504.282 1031.09 512.702 974.657 530.452C930.055 544.561 890.914 565.042 849.497 586.66C796.702 614.423 741.859 643.096 667.673 663.804C606.231 680.872 547.292 689.064 487.215 689.064C410.071 689.064 328.603 675.183 238.032 646.737C92.8462 601.224 87.1571 600.542 33.2244 594.625C25.7148 593.715 17.2949 592.804 7.50969 591.667C5.23405 591.439 2.95841 590.984 0.682764 590.756V587.343C2.95841 587.798 5.46161 588.026 7.96482 588.253C17.7501 589.391 26.1699 590.301 33.6796 591.211C88.0674 597.128 93.7565 597.811 239.17 643.551C329.058 672.224 410.298 685.878 486.987 685.878C546.837 685.878 605.548 677.686 666.535 660.618C740.494 640.138 795.109 611.465 847.904 583.702C889.548 561.856 928.689 541.375 973.519 527.266C998.551 519.301 1045.43 504.51 1044.52 496.317C1043.15 485.622 966.465 479.022 899.789 474.471C824.692 469.465 744.59 464.458 665.17 464.458C548.202 464.458 448.529 475.381 352.042 498.82C210.269 533.41 126.298 537.961 62.8078 537.961C47.7885 537.961 33.6796 537.734 20.2533 537.506C13.4264 537.279 6.82699 537.279 0.4552 537.051V533.638C7.05456 533.865 13.6539 533.865 20.4808 534.093Z" fill="#FBE7B5"/>
<path d="M92.1634 1128.72C99.2179 1127.58 106.5 1126.44 114.01 1125.53C133.58 1122.8 147.917 1120.07 158.385 1118.02C177.045 1114.38 184.099 1113.02 185.92 1119.39C188.423 1128.26 179.32 1131.68 90.5705 1163.76C49.6089 1178.55 20.2532 1179.24 0.227539 1176.05V1172.41C19.5705 1175.82 48.9263 1175.37 89.2051 1160.8C167.715 1132.36 184.099 1126.44 182.279 1120.53C181.369 1117.57 175.452 1118.48 158.84 1121.66C148.372 1123.71 134.035 1126.44 114.465 1129.17C106.955 1130.31 99.673 1131.45 92.6186 1132.36C60.9872 1137.14 32.5416 1141.46 0.227539 1137.82V1134.18C32.5416 1137.82 60.7596 1133.5 92.1634 1128.72Z" fill="#FBE7B5"/>
<path d="M306.984 1098.91C278.994 1117.11 241.445 1134.63 201.849 1153.29C164.984 1170.59 126.981 1188.57 94.2115 1207.91C60.7596 1227.71 26.625 1230.44 0.455103 1227.94V1224.52C25.9423 1227.03 59.6218 1224.52 92.391 1204.95C125.16 1185.61 163.391 1167.63 200.256 1150.11C239.853 1131.45 277.173 1113.93 304.936 1095.95C338.388 1074.33 343.622 1065.23 342.029 1061.59C340.208 1057.04 325.189 1051.8 244.631 1067.5C136.994 1088.21 60.532 1089.8 0.227539 1071.14V1067.5C60.3045 1086.16 136.311 1084.8 244.176 1064.09C288.551 1055.44 339.981 1047.25 345.215 1060.45C348.401 1067.73 336.567 1079.79 306.984 1098.91Z" fill="#FBE7B5"/>
<path d="M96.2596 1110.51C166.122 1103.91 222.103 1094.36 262.154 1082.07C274.897 1078.2 294.695 1074.79 297.426 1081.38C298.564 1084.34 297.426 1089.8 273.077 1102.09C246.224 1115.52 221.875 1126.67 191.154 1140.78C170.901 1150.11 147.917 1160.58 119.471 1174C73.7308 1195.62 33.4519 1204.27 0.455128 1199.72V1196.3C32.9968 1200.86 72.8205 1192.21 117.878 1171.04C146.324 1157.62 169.308 1147.15 189.561 1137.82C220.282 1123.71 244.404 1112.56 271.256 1099.13C295.378 1087.07 294.013 1082.75 294.013 1082.75C293.103 1080.7 281.497 1079.56 262.837 1085.25C222.558 1097.77 166.577 1107.33 96.2596 1113.93C55.7532 1117.79 23.4391 1113.93 0 1108.69V1105.28C22.0737 1110.29 54.6154 1114.61 96.2596 1110.51Z" fill="#FBE7B5"/>
<path d="M1619.35 956.224C1605.92 952.356 1592.04 948.259 1577.7 944.163C1465.74 912.077 1407.03 925.958 1310.09 949.17C1276.41 957.134 1238.18 966.237 1191.3 974.884C1042.24 1002.65 968.285 980.574 866.109 950.08C843.352 943.253 819.686 936.199 793.516 929.144C702.035 904.795 624.891 911.394 550.477 917.766C508.151 921.407 468.099 924.82 425.772 923C356.138 919.814 323.141 930.737 281.497 944.163C251.913 953.721 218.917 964.416 166.577 972.609C93.3012 984.215 35.4999 976.477 0.455078 966.237V961.458C34.8173 971.699 92.391 979.891 165.894 968.058C217.779 959.865 250.776 949.17 279.676 939.612C322.003 925.958 355.228 915.035 425.545 918.221C467.644 920.042 507.468 916.628 549.795 912.987C584.157 910.029 618.974 907.07 655.612 907.07C698.849 907.07 744.362 911.166 794.426 924.593C820.824 931.647 844.263 938.702 867.247 945.529C968.968 975.795 1042.24 997.641 1190.39 970.106C1237.04 961.458 1275.27 952.356 1308.95 944.391C1406.8 921.179 1465.74 907.07 1578.84 939.612C1593.18 943.708 1607.06 947.804 1620.48 951.673C1734.95 985.125 1814.14 1008.34 1916.09 985.808V990.586C1813.69 1012.89 1734.27 989.676 1619.35 956.224Z" fill="#DFC990"/>
<path d="M1764.53 1064.09C1691.03 1066.37 1615.25 1050.44 1545.39 1018.12C1428.42 963.734 1328.06 984.67 1175.82 1016.3C1136 1024.72 1094.58 1033.14 1048.16 1041.56C917.766 1064.77 819.686 1038.15 732.984 1014.71C668.583 997.186 607.596 980.574 540.92 985.58C457.631 991.724 407.795 1004.7 359.551 1017.21C316.542 1028.36 271.939 1039.97 204.353 1045.88C119.926 1053.39 46.1955 1041.56 0.227539 1029.04V1024.04C40.5064 1035.19 113.327 1049.3 203.897 1041.33C271.029 1035.42 313.356 1024.27 358.413 1012.66C406.885 1000.14 456.949 987.173 540.465 981.029C608.051 976.022 669.266 992.635 734.122 1010.38C820.141 1033.82 917.766 1060.22 1047.25 1037.24C1093.67 1029.04 1134.86 1020.4 1174.91 1011.98C1259.34 994.455 1328.06 980.119 1392.46 980.119C1444.58 980.119 1494.19 989.449 1547.21 1014.03C1616.16 1046.11 1691.26 1061.81 1764.3 1059.54C1819.37 1057.95 1871.26 1046.34 1916.09 1025.86V1030.87C1871.26 1050.89 1819.6 1062.27 1764.53 1064.09Z" fill="#DFC990"/>
<path d="M1648.47 1020.17C1616.62 1010.84 1589.99 1001.05 1566.32 992.407C1482.35 961.458 1421.82 938.929 1229.3 980.119C1041.56 1020.17 935.971 993.09 833.795 966.92C800.798 958.5 766.436 949.625 729.798 943.253C626.256 925.048 559.125 944.163 457.631 973.064C412.801 985.808 362.054 1000.37 298.792 1014.03C192.974 1037.01 108.776 1029.73 56.6634 1019.49C33.4519 1014.94 14.5641 1009.47 0.227539 1004.47V999.689C14.5641 1004.7 33.907 1010.38 57.8013 1014.94C151.103 1033.14 239.853 1021.99 297.881 1009.25C360.689 995.593 411.663 981.029 456.266 968.285C528.631 947.577 586.205 931.192 653.109 931.192C677.231 931.192 702.718 933.24 730.481 938.247C767.346 944.619 801.481 953.494 834.705 962.141C940.978 989.449 1041.33 1015.39 1228.16 975.34C1422.05 933.923 1483.04 956.452 1567.69 987.856C1591.13 996.503 1617.75 1006.52 1649.61 1015.62C1774.09 1051.8 1854.87 1037.46 1916.09 1013.34V1018.35C1854.42 1042.7 1773.18 1056.35 1648.47 1020.17Z" fill="#DFC990"/>
<path d="M1588.4 608.051C1573.61 602.362 1558.13 596.446 1542.66 590.529C1409.08 540.01 1241.59 546.154 1071.14 607.369C1008.34 629.897 953.266 658.343 899.788 685.651C817.638 727.978 732.529 771.67 614.651 797.84C464.913 831.292 384.356 797.84 298.792 762.34C272.167 751.417 244.859 740.038 214.365 730.026C120.609 699.532 38.2307 710.228 0.455078 718.192V713.641C39.141 705.676 121.747 695.208 215.731 725.93C246.452 735.942 273.987 747.321 300.612 758.471C388.907 795.109 465.369 826.74 613.74 793.744C730.936 767.574 815.817 724.109 897.74 682.01C951.218 654.474 1006.52 626.029 1069.55 603.5C1163.99 569.365 1257.75 552.298 1345.13 552.298C1416.59 552.298 1483.72 563.676 1544.25 586.433C1559.72 592.349 1575.2 598.266 1589.99 603.955C1701.95 646.965 1800.26 684.74 1916.32 684.968V689.519C1799.35 689.292 1700.81 651.288 1588.4 608.051Z" fill="#DFC990"/>
<path d="M1760.44 656.067C1702.86 644.234 1648.25 614.878 1595.45 586.432C1527.18 549.567 1456.64 511.564 1376.08 508.15C1224.75 502.006 1113.47 559.807 959.638 639.682C903.202 669.038 839.256 702.263 765.298 736.625C537.051 842.442 393.913 786.006 267.615 736.17C240.308 725.474 214.593 715.234 188.878 707.041C114.01 683.147 59.3942 680.872 26.8525 683.375C16.6121 684.057 7.73713 685.423 0.455078 686.788V682.009C33.907 675.865 96.4871 672.907 190.244 702.945C216.186 711.138 241.901 721.378 269.436 732.073C394.824 781.455 537.051 837.663 763.477 732.529C837.208 698.394 901.154 665.17 957.59 635.814C1104.37 559.58 1212.69 503.372 1354.01 503.372C1361.29 503.372 1368.8 503.599 1376.31 503.827C1458 507.24 1529 545.471 1597.73 582.564C1698.31 636.724 1793.66 688.154 1916.32 634.904V639.91C1864.66 661.529 1813.46 666.763 1760.44 656.067Z" fill="#DFC990"/>
<path d="M1664.63 501.551C1571.33 533.638 1513.3 509.516 1456.87 486.304C1410.21 466.961 1361.74 446.936 1292.56 458.314C1189.25 475.381 1089.12 534.093 962.369 608.051C900.926 644.006 831.519 684.74 751.189 726.84C657.888 775.766 569.365 794.654 480.615 784.413C402.106 775.311 333.381 745.272 266.705 716.372C240.535 704.993 215.731 694.298 190.471 684.513C110.596 654.247 54.8429 647.192 22.3012 646.737C13.8814 646.509 6.82687 646.965 0.455078 647.42V642.641C34.1346 640.138 96.032 644.006 192.519 680.416C218.006 689.974 242.811 700.897 268.981 712.275C335.202 741.176 403.699 770.987 481.526 779.862C569.365 790.102 656.978 771.442 749.369 722.743C829.471 680.644 899.106 639.91 960.32 603.955C1087.3 529.541 1187.88 470.83 1291.88 453.535C1306.22 451.259 1319.64 450.122 1332.39 450.122C1382.22 450.122 1420.91 466.051 1458.69 481.753C1516.71 505.875 1571.56 528.404 1663.27 497C1773.86 458.997 1865.8 463.548 1916.32 471.057V475.609C1904.48 473.788 1890.15 471.968 1873.76 471.057C1826.43 468.554 1751.79 471.74 1664.63 501.551Z" fill="#DFC990"/>
<path d="M1531.73 306.756C1449.13 351.814 1371.07 394.596 1295.07 412.801C1142.83 449.439 1030.87 433.054 876.122 410.525C837.891 405.064 798.067 399.147 754.375 393.686C545.926 367.516 410.07 408.705 266.022 452.17C258.285 454.445 250.776 456.721 243.038 459.224C140.407 490.173 48.9262 494.952 0.455078 492.676V487.897C39.141 489.49 129.711 488.58 241.901 454.9C249.638 452.625 257.375 450.349 264.885 447.846C409.16 404.154 545.699 362.965 755.058 389.134C798.75 394.596 838.574 400.285 876.804 405.974C1031.09 428.503 1142.6 444.66 1293.93 408.25C1369.25 390.045 1447.08 347.718 1529.46 302.66C1642.79 240.763 1770.45 171.128 1916.09 154.061V158.612C1771.59 175.907 1644.83 245.086 1531.73 306.756Z" fill="#DFC990"/>
<path d="M1525.59 286.503C1409.53 361.599 1315.55 402.333 1229.53 414.622C1149.88 425.772 1080.93 412.801 1001.28 397.782C956.907 389.362 906.388 379.804 848.814 373.66C602.59 347.718 540.465 361.827 334.519 408.705C322.913 411.436 310.625 414.166 298.109 416.897C174.769 444.888 92.1634 442.84 44.3749 436.013C26.1698 433.509 11.6057 430.096 0.455078 426.91V421.904C43.2371 434.647 136.083 448.756 296.971 412.346C309.715 409.388 321.776 406.657 333.381 404.154C539.782 357.048 602.135 342.939 849.042 369.109C906.843 375.253 957.362 384.811 1001.74 393.231C1080.93 408.25 1149.43 421.221 1228.39 410.07C1313.73 398.009 1407.26 357.503 1522.63 282.634C1689.21 174.769 1822.56 134.035 1904.94 119.016C1908.58 118.333 1912.22 117.65 1915.86 117.195V121.747C1912.45 122.202 1909.04 122.884 1905.39 123.567C1757.25 150.875 1617.07 227.109 1525.59 286.503Z" fill="#DFC990"/>
<path d="M676.093 306.528C601.224 318.362 516.115 331.788 412.346 355.682C247.817 393.458 133.58 376.163 66.6762 355C39.141 346.125 17.2948 336.112 0.455078 327.009V321.775C17.2948 331.105 39.8237 341.573 68.2692 350.676C134.49 371.612 248.045 388.679 411.208 351.131C515.205 327.237 600.086 313.811 675.183 301.977C827.423 277.855 928.006 261.926 1029.5 181.141C1149.88 85.3362 1223.38 34.817 1318.28 0.227234H1331.93C1231.58 34.817 1157.39 85.1086 1032.46 184.782C930.054 266.25 829.016 282.179 676.093 306.528Z" fill="#DFC990"/>
<path d="M575.51 345.67C500.413 357.958 422.814 370.474 339.526 389.362C260.788 407.34 145.869 421.221 45.5128 386.176C27.5352 379.804 12.7435 372.977 0.455078 366.378V361.144C12.7435 368.199 28.2179 375.481 46.8782 381.852C146.096 416.442 260.106 402.561 338.388 384.811C421.904 365.923 499.503 353.179 574.827 340.891C744.817 313.128 891.596 289.234 1017.21 204.125C1171.73 99.4454 1327.15 31.8588 1487.59 -0.000183105H1512.62C1344.22 29.3556 1181.29 98.3076 1019.71 207.766C893.189 294.013 745.955 317.907 575.51 345.67Z" fill="#DFC990"/>
<path d="M461.727 1293.02C504.282 1294.61 542.285 1296.2 575.737 1297.8C750.506 1305.76 822.872 1308.95 954.176 1266.62C1049.53 1235.9 1143.05 1216.56 1224.29 1210.87C1242.5 1209.5 1260.02 1209.05 1277.09 1209.05C1361.97 1209.05 1433.43 1224.98 1490.32 1256.38C1582.03 1306.9 1656.67 1338.08 1730.62 1354.92H1711.05C1648.93 1338.53 1578.38 1310.09 1488.27 1260.25C1419.54 1222.25 1259.11 1173.32 955.542 1270.95C823.327 1313.5 745.727 1310.09 575.509 1302.35C542.058 1300.76 504.054 1299.16 461.5 1297.57C286.731 1291.2 153.833 1329.66 86.7018 1354.92H74.1858C137.449 1329.88 276.035 1286.19 461.727 1293.02Z" fill="#DFC990"/>
<path d="M1757.71 1295.75L1747.01 1297.57C1675.33 1309.63 1612.97 1309.18 1461.42 1191.3C1332.84 1091.4 1252.51 1123.26 1118.93 1176.05C1100.96 1183.11 1082.29 1190.62 1062.5 1198.12C897.058 1260.48 805.577 1264.12 636.042 1257.52C609.417 1256.38 587.115 1255.47 567.545 1254.56C468.554 1250.24 441.929 1248.87 273.077 1259.57C138.587 1267.99 46.423 1264.12 0.227539 1260.7V1256.15C46.1955 1259.57 138.131 1263.44 272.849 1255.02C441.702 1244.32 468.554 1245.69 567.772 1250.01C587.343 1250.92 609.417 1251.83 636.269 1252.97C805.122 1259.57 896.147 1255.93 1060.9 1193.8C1080.7 1186.29 1099.36 1179.01 1117.34 1171.73C1184.7 1145.1 1237.95 1123.94 1291.65 1121.89C1294.61 1121.66 1297.57 1121.66 1300.3 1121.66C1354.92 1121.66 1405.66 1142.37 1464.15 1187.66C1614.11 1304.4 1675.55 1304.85 1746.1 1293.02L1756.79 1291.2C1813.23 1281.64 1867.16 1272.54 1916.32 1278.23V1282.78C1867.62 1277.09 1813.91 1286.19 1757.71 1295.75Z" fill="#DFC990"/>
<path d="M1788.2 1354.92C1650.29 1337.85 1543.34 1276.63 1471.88 1235.9C1457.55 1227.71 1445.26 1220.65 1434.11 1214.74C1349 1169.68 1254.79 1167.4 1098 1206.54C1054.3 1217.47 1020.17 1227.71 989.904 1236.81C912.304 1260.02 856.324 1276.86 713.413 1285.96C589.163 1293.93 515.888 1290.29 438.516 1286.42C390.728 1284.14 341.119 1281.64 276.263 1281.64C159.978 1281.87 55.0705 1316 0.455078 1337.39V1332.62C55.9807 1311 160.433 1277.32 276.49 1277.32C341.574 1277.32 391.183 1279.82 438.971 1282.1C516.343 1285.96 589.391 1289.38 713.413 1281.64C855.868 1272.54 911.622 1255.93 988.993 1232.71C1019.26 1223.61 1053.62 1213.37 1097.31 1202.45C1171.04 1184.02 1231.12 1174.69 1283.01 1174.69C1342.17 1174.69 1390.64 1186.75 1436.38 1211.1C1447.54 1217.01 1459.82 1224.07 1474.16 1232.26C1565.87 1284.37 1716.74 1370.62 1916.32 1352.41V1354.92H1788.2Z" fill="#DFC990"/>
<path d="M612.602 84.654C515.66 115.83 495.407 114.692 252.596 61.4425C126.981 33.9072 53.4775 28.9008 14.1089 29.5835C9.10251 29.5835 4.55123 29.8111 0.455078 30.0386V25.2599C41.8717 22.9842 118.106 27.0803 253.506 56.6637C502.461 111.279 518.163 109.914 611.237 80.1027C642.186 70.0899 677.231 65.9937 714.324 61.4425C780.09 53.7053 853.365 44.8303 919.359 0.000152588H927.324C859.054 48.6989 783.048 57.8014 715.006 65.9937C677.913 70.545 643.324 74.6412 612.602 84.654Z" fill="#DFC990"/>
<path d="M1125.76 73.2755C1113.24 82.1505 1098.91 92.391 1082.98 103.314C969.878 181.596 913.897 195.022 717.054 234.846C624.208 253.506 565.269 275.352 508.151 296.516C444.66 319.955 384.583 342.029 283.09 359.779C182.051 377.301 101.949 358.186 52.7948 339.07C31.4038 330.878 13.8814 321.776 0.455078 314.038V308.804C14.1089 316.769 32.314 326.327 54.6153 334.974C103.314 353.862 182.279 372.75 282.407 355.455C383.445 337.933 443.295 315.859 506.558 292.42C563.904 271.256 623.07 249.41 716.144 230.522C912.304 190.926 968.058 177.272 1080.47 99.6731C1096.4 88.75 1110.51 78.5096 1123.03 69.6346C1164.9 39.8237 1194.48 18.4326 1237.27 0.455017H1249.33C1201.54 19.1153 1170.59 41.189 1125.76 73.2755Z" fill="#DFC990"/>
<path d="M782.593 185.237C644.234 206.856 562.538 240.08 475.836 275.125C422.586 296.744 367.744 319.045 298.109 338.615C204.58 365.013 119.926 347.946 65.3108 329.058C38.9134 319.955 16.8397 309.487 0.455078 300.612V295.378C16.8397 304.253 39.5961 315.176 66.9038 324.734C120.836 343.394 204.58 360.234 296.971 334.064C366.378 314.494 421.221 292.192 474.244 270.801C561.173 235.529 643.096 202.305 782.138 180.458C973.519 150.42 1059.99 92.8462 1179.46 13.4263C1186.06 9.1026 1192.89 4.55127 1199.49 -3.05176e-05H1207.68C1198.81 5.68909 1190.39 11.6057 1181.74 17.0673C1061.81 97.3974 974.885 154.971 782.593 185.237Z" fill="#DFC990"/>
<path d="M661.756 158.84C645.827 159.523 631.035 160.205 617.154 160.888C450.804 167.942 406.202 169.99 288.551 275.808C235.529 323.596 163.846 332.244 81.4679 301.067C48.6987 288.324 20.2532 271.712 0.455078 258.968V253.506C20.0256 266.478 49.1538 283.772 83.0608 296.744C185.01 335.43 249.41 304.936 285.365 272.394C404.154 165.439 449.211 163.391 616.926 156.337C630.808 155.654 645.827 155.199 661.529 154.289C770.987 149.282 847.904 134.035 910.939 105.362C963.051 81.468 1006.06 47.5609 1043.84 0.455139H1049.75C966.92 105.817 856.324 149.737 661.756 158.84Z" fill="#DFC990"/>
<path d="M705.449 93.3013C668.128 94.6667 632.856 95.8046 603.955 101.494L596.901 102.859C504.965 120.837 504.965 120.837 320.183 90.7981C302.433 87.8398 282.862 84.6539 261.471 81.2404C190.699 69.8622 90.798 62.3526 16.6121 91.2533C10.923 93.5289 5.46146 95.8045 0.682617 98.3077V93.3013C4.77877 91.2532 9.33005 89.2052 14.3365 87.3847C89.6602 57.8013 190.699 65.311 262.154 76.9168C283.545 80.3302 303.115 83.516 320.865 86.4744C504.965 116.285 504.965 116.285 595.99 98.5354L603.045 97.1699C632.173 91.4808 667.673 90.1154 705.221 88.75C803.984 85.3365 915.035 81.2405 985.808 0.227646H991.724C919.586 85.5642 801.253 89.8878 705.449 93.3013Z" fill="#DFC990"/>
<path d="M683.147 141.772C526.128 157.929 413.939 139.269 314.949 122.657C263.519 114.01 214.82 105.817 162.936 102.631C91.4807 98.3077 37.548 111.051 0.455078 125.615V120.837C38.0032 106.272 91.9358 93.7564 163.391 98.0801C215.503 101.266 264.202 109.458 315.859 118.106C419.401 135.401 526.356 153.378 682.692 137.221C869.295 117.878 955.997 56.891 1002.65 0.227524H1008.56C961.686 58.4839 874.529 122.202 683.147 141.772Z" fill="#DFC990"/>
</mask>
<g mask="url(#mask0_16_1427)">
<rect width="1917" height="1068" transform="matrix(1 0 0 -1 0 1068)" fill="url(#paint0_linear_16_1427)"/>
</g>
<defs>
<linearGradient id="paint0_linear_16_1427" x1="958.5" y1="0" x2="807" y2="1049" gradientUnits="userSpaceOnUse">
<stop offset="0.350814" stop-color="#FBE7B5" stop-opacity="0"/>
<stop offset="0.742586" stop-color="#FBE7B5" stop-opacity="0.05"/>
<stop offset="0.963528" stop-color="#FBE7B5" stop-opacity="0"/>
</linearGradient>
</defs>
</svg>
