<svg width="50" height="50" viewBox="0 0 50 50" fill="none" xmlns="http://www.w3.org/2000/svg">
<rect x="0.5" y="0.5" width="49" height="49" rx="9.5" stroke="#FBE7B5"/>
<path d="M27.38 39C25.5084 39 23.6874 39 21.799 39C21.799 38.8305 21.799 38.661 21.799 38.4916C21.799 34.153 21.799 29.7974 21.799 25.4588C21.799 25.1029 21.7146 24.9842 21.3437 25.0012C20.5681 25.0351 19.8093 25.0181 19 25.0181C19 23.1539 19 21.3066 19 19.4254C19.8936 19.4254 20.7873 19.4254 21.7484 19.4254C21.7484 19.1881 21.7315 18.9847 21.7484 18.7983C21.8158 17.612 21.7484 16.4087 21.9676 15.2562C22.4397 12.8158 24.1427 11.2735 26.5876 11.0871C28.3243 10.9515 30.0609 11.0193 31.7977 11.0024C31.8314 11.0024 31.8651 11.0193 31.9157 11.0363C31.9157 11.0871 31.9326 11.1549 31.9326 11.2057C31.9326 12.7141 31.9326 14.2224 31.9326 15.7816C31.7808 15.7986 31.6459 15.7986 31.5279 15.7986C30.6511 15.7986 29.7912 15.7986 28.9144 15.7986C28.0376 15.7986 27.5992 16.2053 27.5655 17.0866C27.5486 17.7815 27.5655 18.4933 27.5655 19.1881C27.5655 19.239 27.5824 19.2898 27.5992 19.3745C29.0493 19.3745 30.4994 19.3745 32 19.3745C31.8314 21.2727 31.6628 23.103 31.4773 25.0012C31.2412 25.0012 31.0221 25.0012 30.8029 25.0012C29.7912 25.0012 28.7964 25.0181 27.7847 24.9842C27.4475 24.9842 27.3463 25.069 27.3463 25.4249C27.3632 29.7804 27.3463 34.136 27.3463 38.5085C27.38 38.6611 27.38 38.8136 27.38 39Z" fill="#FBE7B5"/>
</svg>
