<svg width="42" height="41" viewBox="0 0 42 41" fill="none" xmlns="http://www.w3.org/2000/svg">
<rect x="1.0101" y="0.41" width="40.18" height="40.18" rx="7.79" fill="#FBE7B5" stroke="#FBE7B5" stroke-width="0.82"/>
<path d="M23.0518 31.9805C21.5171 31.9805 20.0239 31.9805 18.4753 31.9805C18.4753 31.8415 18.4753 31.7026 18.4753 31.5636C18.4753 28.0059 18.4753 24.4344 18.4753 20.8767C18.4753 20.5849 18.4062 20.4876 18.102 20.5015C17.466 20.5293 16.8438 20.5154 16.1802 20.5154C16.1802 18.9867 16.1802 17.4719 16.1802 15.9293C16.913 15.9293 17.6457 15.9293 18.4338 15.9293C18.4338 15.7348 18.42 15.568 18.4338 15.4151C18.4891 14.4423 18.4338 13.4556 18.6136 12.5106C19.0007 10.5094 20.3972 9.2448 22.402 9.09193C23.8261 8.98075 25.2502 9.03634 26.6743 9.02244C26.7019 9.02244 26.7296 9.03634 26.771 9.05024C26.771 9.09193 26.7849 9.14752 26.7849 9.18921C26.7849 10.4261 26.7849 11.6629 26.7849 12.9414C26.6604 12.9553 26.5498 12.9553 26.453 12.9553C25.7341 12.9553 25.0289 12.9553 24.31 12.9553C23.591 12.9553 23.2315 13.2889 23.2039 14.0115C23.1901 14.5813 23.2039 15.165 23.2039 15.7348C23.2039 15.7765 23.2177 15.8181 23.2315 15.8876C24.4206 15.8876 25.6096 15.8876 26.8402 15.8876C26.7019 17.4441 26.5637 18.945 26.4116 20.5015C26.218 20.5015 26.0383 20.5015 25.8585 20.5015C25.0289 20.5015 24.2132 20.5154 23.3836 20.4876C23.1071 20.4876 23.0241 20.5571 23.0241 20.8489C23.038 24.4205 23.0241 27.992 23.0241 31.5775C23.0518 31.7026 23.0518 31.8276 23.0518 31.9805Z" fill="#3B281A"/>
</svg>
