<svg width="50" height="50" viewBox="0 0 50 50" fill="none" xmlns="http://www.w3.org/2000/svg">
<rect x="0.5" y="0.5" width="49" height="49" rx="9.5" stroke="#FBE7B5"/>
<path d="M38.4073 18.8778C38.3908 14.4445 34.9464 11 30.5131 11C26.6401 11 22.7672 11 18.8942 11C14.4444 11.0165 11 14.4609 11 18.9107C11 22.8002 11 26.6731 11 30.5625C11 34.9464 14.4609 38.4073 18.8448 38.4238C22.7507 38.4403 26.6566 38.4238 30.5625 38.4238C30.9581 38.4238 31.3701 38.3909 31.7491 38.3414C35.6715 37.6987 38.3908 34.5179 38.4073 30.5461C38.4238 28.6013 38.4073 26.6566 38.4073 24.7284C38.4073 22.7507 38.4238 20.806 38.4073 18.8778ZM36.0506 30.4966C36.0506 33.6609 33.6609 36.0341 30.4966 36.0506C28.5519 36.0506 26.6072 36.0506 24.6789 36.0506C22.7507 36.0506 20.8225 36.0506 18.8777 36.0506C15.7464 36.0506 13.3402 33.6609 13.3402 30.5131C13.3402 26.6402 13.3402 22.7672 13.3402 18.8942C13.3402 15.73 15.7299 13.3403 18.8942 13.3403C22.7672 13.3403 26.6401 13.3403 30.5131 13.3403C33.6609 13.3403 36.0506 15.7299 36.0506 18.8778C36.0506 22.7507 36.0506 26.6237 36.0506 30.4966Z" fill="#FBE7B5"/>
<path d="M24.7448 17.6912C20.9048 17.6582 17.7076 20.7896 17.6911 24.646C17.6582 28.5355 20.7895 31.6998 24.6789 31.7327C28.5354 31.7657 31.6997 28.6343 31.7326 24.7779C31.7491 20.8719 28.6507 17.7241 24.7448 17.6912ZM24.6789 29.3595C22.1079 29.3595 20.0314 27.2664 20.0314 24.6955C20.0314 22.108 22.1079 20.0314 24.6954 20.0314C27.2499 20.0314 29.3594 22.1245 29.3594 24.679C29.3759 27.2664 27.2829 29.376 24.6789 29.3595Z" fill="#FBE7B5"/>
<path d="M32.0128 15.5815C31.0899 15.5815 30.3318 16.3397 30.3318 17.279C30.3318 18.2184 31.0899 18.9601 32.0293 18.9601C32.9687 18.9601 33.7103 18.202 33.7103 17.2626C33.7103 16.3397 32.9357 15.5815 32.0128 15.5815Z" fill="#FBE7B5"/>
</svg>
