<svg width="42" height="41" viewBox="0 0 42 41" fill="none" xmlns="http://www.w3.org/2000/svg">
<rect x="1.0101" y="0.41" width="40.18" height="40.18" rx="7.79" fill="#FBE7B5" stroke="#FBE7B5" stroke-width="0.82"/>
<path d="M32.0941 15.4803C32.0806 11.845 29.2562 9.02051 25.6208 9.02051C22.445 9.02051 19.2692 9.02051 16.0934 9.02051C12.4446 9.03402 9.62012 11.8585 9.62012 15.5073C9.62012 18.6966 9.62012 21.8724 9.62012 25.0618C9.62012 28.6565 12.4581 31.4945 16.0528 31.508C19.2557 31.5216 22.4585 31.508 25.6614 31.508C25.9857 31.508 26.3236 31.481 26.6344 31.4405C29.8508 30.9134 32.0806 28.3052 32.0941 25.0483C32.1076 23.4536 32.0941 21.8589 32.0941 20.2778C32.0941 18.6561 32.1076 17.0614 32.0941 15.4803ZM30.1616 25.0077C30.1616 27.6025 28.2021 29.5485 25.6073 29.562C24.0127 29.562 22.418 29.562 20.8369 29.562C19.2557 29.562 17.6745 29.562 16.0799 29.562C13.5122 29.562 11.5391 27.6025 11.5391 25.0213C11.5391 21.8454 11.5391 18.6696 11.5391 15.4938C11.5391 12.8991 13.4987 10.9395 16.0934 10.9395C19.2692 10.9395 22.445 10.9395 25.6208 10.9395C28.202 10.9395 30.1616 12.8991 30.1616 15.4803C30.1616 18.6561 30.1616 21.8319 30.1616 25.0077Z" fill="#3B281A"/>
<path d="M20.8909 14.507C17.7421 14.48 15.1204 17.0477 15.1069 20.21C15.0799 23.3994 17.6476 25.9941 20.8369 26.0211C23.9992 26.0481 26.5939 23.4804 26.6209 20.3181C26.6345 17.1153 24.0938 14.5341 20.8909 14.507ZM20.8369 24.0751C18.7287 24.0751 17.0259 22.3588 17.0259 20.2506C17.0259 18.1288 18.7287 16.4261 20.8504 16.4261C22.9451 16.4261 24.6749 18.1424 24.6749 20.237C24.6884 22.3588 22.9721 24.0886 20.8369 24.0751Z" fill="#3B281A"/>
<path d="M26.8506 12.7769C26.0938 12.7769 25.4722 13.3985 25.4722 14.1688C25.4722 14.9391 26.0938 15.5473 26.8641 15.5473C27.6344 15.5473 28.2426 14.9256 28.2426 14.1553C28.2426 13.3985 27.6074 12.7769 26.8506 12.7769Z" fill="#3B281A"/>
</svg>
