<svg width="42" height="41" viewBox="0 0 42 41" fill="none" xmlns="http://www.w3.org/2000/svg">
<rect x="1.0101" y="0.41" width="40.18" height="40.18" rx="7.79" fill="#FBE7B5" stroke="#FBE7B5" stroke-width="0.82"/>
<path d="M21.3234 9.02051C15.269 9.02051 10.3364 13.9532 10.3364 20.0075C10.3364 21.9941 10.8634 23.859 11.7959 25.4672L9.62012 31.8324L12.9716 30.7377C14.0933 30.3729 15.8096 29.8188 16.1339 29.7377C16.161 29.7377 16.2015 29.7242 16.215 29.7377C17.3097 30.3188 18.4989 30.7107 19.7692 30.8864C23.8775 31.4675 28.0534 29.6025 30.3913 26.197C30.7968 25.6159 31.1346 24.9942 31.4184 24.3455C31.9995 22.9806 32.3104 21.5076 32.3104 20.021C32.3104 13.9397 27.3777 9.02051 21.3234 9.02051ZM21.3234 29.2242C20.8774 29.2242 20.4449 29.1971 20.026 29.1296C18.8232 28.9539 17.6881 28.562 16.6745 27.9673C16.634 27.9538 16.2285 27.8862 15.7015 28.0214C15.1204 28.17 12.4175 29.062 12.4175 29.062L13.0527 27.2105C13.0527 27.2105 13.4176 26.197 13.4852 25.8456C13.5392 25.5888 13.5662 25.0213 13.4581 24.8185C13.1879 24.3185 12.9041 23.8185 12.7013 23.2779C12.3094 22.2509 12.0932 21.1427 12.0932 19.994C12.0932 14.8992 16.2285 10.7638 21.3234 10.7638C26.4182 10.7638 30.5535 14.8992 30.5535 19.994C30.5535 25.0888 26.4182 29.2242 21.3234 29.2242Z" fill="#3B281A"/>
<path d="M18.8367 15.4932C18.8367 15.4932 18.7421 15.223 18.4178 15.1689C18.0934 15.1148 17.6745 15.1419 17.5664 15.1689C17.4448 15.1959 16.8907 15.5203 16.5393 16.2906C16.1879 17.0609 16.0663 18.1555 16.5393 19.1015C17.0123 20.0475 18.0394 21.7097 19.6341 23.0071C21.2287 24.3045 23.3099 24.8991 24.2154 24.9531C25.1208 24.9937 26.2019 24.2639 26.4722 23.845C26.729 23.4261 26.756 22.5747 26.6749 22.4125C26.5938 22.2503 24.2559 21.2097 24.1478 21.1962C24.0262 21.1827 23.0261 22.5882 22.8099 22.5747C22.5937 22.5611 21.4585 22.1692 20.4855 21.3043C19.5124 20.4394 18.8773 19.3313 18.8773 19.1826C18.8773 19.034 19.8233 18.1285 19.7557 17.8177C19.6746 17.4933 18.8367 15.4932 18.8367 15.4932Z" fill="#3B281A"/>
</svg>
