<svg width="50" height="50" viewBox="0 0 50 50" fill="none" xmlns="http://www.w3.org/2000/svg">
<rect x="0.5" y="0.5" width="49" height="49" rx="9.5" stroke="#FBE7B5"/>
<path d="M25.2722 11C17.8889 11 11.8735 17.0155 11.8735 24.3988C11.8735 26.8214 12.5162 29.0958 13.6534 31.057L11 38.8194L15.0872 37.4844C16.4551 37.0395 18.5481 36.3637 18.9437 36.2649C18.9766 36.2649 19.0261 36.2484 19.0426 36.2649C20.3775 36.9735 21.8278 37.4515 23.377 37.6657C28.3871 38.3744 33.4796 36.1 36.3308 31.9469C36.8252 31.2382 37.2372 30.4801 37.5833 29.6891C38.292 28.0245 38.671 26.2281 38.671 24.4153C38.671 16.999 32.6556 11 25.2722 11ZM25.2722 35.6386C24.7284 35.6386 24.201 35.6056 23.6901 35.5232C22.2233 35.309 20.8389 34.831 19.6029 34.1059C19.5535 34.0894 19.059 34.007 18.4163 34.1718C17.7076 34.3531 14.4115 35.4408 14.4115 35.4408L15.1861 33.183C15.1861 33.183 15.6311 31.9469 15.7135 31.5184C15.7794 31.2053 15.8124 30.5131 15.6805 30.2659C15.3509 29.6561 15.0048 29.0463 14.7576 28.3871C14.2797 27.1346 14.016 25.7832 14.016 24.3823C14.016 18.1691 19.059 13.126 25.2722 13.126C31.4855 13.126 36.5285 18.1691 36.5285 24.3823C36.5285 30.5955 31.4855 35.6386 25.2722 35.6386Z" fill="#FBE7B5"/>
<path d="M22.2398 18.8945C22.2398 18.8945 22.1245 18.5649 21.7289 18.499C21.3334 18.4331 20.8225 18.466 20.6907 18.499C20.5423 18.532 19.8666 18.9275 19.4381 19.8669C19.0096 20.8063 18.8613 22.1412 19.4381 23.2949C20.0149 24.4485 21.2675 26.4756 23.2122 28.0578C25.1569 29.6399 27.6949 30.3651 28.7991 30.431C29.9033 30.4804 31.2218 29.5905 31.5514 29.0796C31.8645 28.5687 31.8975 27.5304 31.7986 27.3326C31.6997 27.1349 28.8486 25.8658 28.7167 25.8494C28.5684 25.8329 27.3488 27.5469 27.0851 27.5304C26.8214 27.5139 25.4371 27.036 24.2505 25.9812C23.0639 24.9265 22.2893 23.5751 22.2893 23.3938C22.2893 23.2125 23.4429 22.1083 23.3605 21.7292C23.2616 21.3337 22.2398 18.8945 22.2398 18.8945Z" fill="#FBE7B5"/>
</svg>
